<svg width="536" height="536" viewBox="0 0 100 100" fill="none" xmlns="http://www.w3.org/2000/svg">
<g clipPath="url(#clip0_1_2)">
<path fillRule="evenodd" clipRule="evenodd" d="M-0.245721 319.12C0.95485 318.109 2.88838 319.001 2.95764 318.519C4.22466 309.707 13.592 314.984 16.2789 319.149C16.6179 319.675 16.7143 320.874 16.7143 320.874C16.7143 320.874 17.7082 318.503 19.2471 317.969C21.9451 317.034 23.7812 317.834 24.9697 319.677C25.9025 321.123 26.215 322.69 26.4152 322.474C27.2249 321.6 27.8759 320.704 29.1523 320.548C31.6383 320.243 33.5587 322.243 33.4261 321.862C33.0531 320.79 32.5395 319.574 32.1687 318.507C31.119 315.49 30.5037 307.026 37.875 307.501C42.1037 307.773 47.1268 311.016 49.3966 313.921C49.5791 314.154 49.6377 309.74 53.7534 309.012C56.3664 308.549 57.9981 309.049 59.0281 309.265C61.9341 309.874 62.2891 312.611 62.2693 314.533C62.2662 314.832 62.1695 315.427 62.1695 315.427C62.1695 315.427 63.4058 314.379 63.6885 314.129C65.6564 312.396 68.3367 312.831 70.2531 313.616C71.978 314.323 73.0216 317.558 73.0216 317.558C73.0216 317.558 77.0176 316.459 78.6439 317.179C81.1177 318.272 80.3002 320.9 79.586 322.486C79.1223 323.517 78.1949 325.578 78.1949 325.578C78.1949 325.578 79.8792 324.684 80.8348 324.423C89.001 322.191 91.5259 326.237 89.561 330.604C89.4919 330.758 89.1044 330.946 89.1044 330.946C89.1044 330.946 90.6012 334.056 90.3248 335.636C89.9982 337.503 88.014 338.129 85.9443 338.64C75.8146 341.139 68.0972 336.818 58.5038 337.031C44.7182 337.336 30.9135 337.819 17.279 336.441C14.8673 336.198 -2.35104 336.795 -3.36902 335.216C-4.4568 333.531 -2.42862 329.913 -2.20659 327.924C-1.85372 324.76 -1.44629 320.13 -0.245721 319.12Z" fill="#666417"/>
<path fillRule="evenodd" clipRule="evenodd" d="M131.911 323.316C131.075 322.623 130.622 322.018 130.633 321.14C130.729 313.421 140.878 317.353 143.682 320.965C144.035 321.421 144.136 322.46 144.136 322.46C144.136 322.46 144.656 319.689 146.346 319.545C149.708 319.259 151.887 320.011 153.127 321.609C154.1 322.863 152.23 324.656 153.477 323.88C154.472 323.261 155.733 323.033 156.991 322.643C157.417 322.511 158.108 322.565 158.598 322.591C160.676 322.703 161.942 323.563 162.454 324.223C162.585 324.391 161.848 323.594 161.71 323.264C161.32 322.334 161.092 321.377 160.705 320.452C159.61 317.835 158.522 310.453 166.212 310.865C170.624 311.101 178.984 315.108 177.995 317.366C177.466 318.574 181.67 314.044 183.124 313.426C185.912 312.243 187.607 312.809 188.401 313.065C191.608 314.098 191.682 315.296 191.662 316.962C191.658 317.222 191.557 317.738 191.557 317.738C191.557 317.738 191.88 317.143 192.041 316.845C192.996 315.081 197.991 315.487 199.991 316.167C201.79 316.78 202.879 319.585 202.879 319.585C202.879 319.585 207.048 318.633 208.744 319.257C211.325 320.205 210.472 322.483 209.727 323.859C209.244 324.752 208.276 326.54 208.276 326.54C208.276 326.54 210.033 325.764 211.03 325.538C219.55 323.603 222.184 327.111 220.134 330.898C220.062 331.031 219.657 331.194 219.657 331.194C219.657 331.194 221.219 333.891 220.931 335.261C220.59 336.88 218.52 337.422 216.361 337.865C205.793 340.033 197.741 336.285 187.733 336.47C173.351 336.735 158.949 337.154 144.725 335.959C142.209 335.748 123.492 337.045 122.43 335.677C121.295 334.215 121.273 330.784 121.505 329.059C121.873 326.316 125.857 322.486 127.11 321.61C128.362 320.733 131.911 323.316 131.911 323.316Z" fill="#666417"/>
<path fillRule="evenodd" clipRule="evenodd" d="M470.57 325.207C469.769 324.703 469.335 324.264 469.345 323.625C469.437 318.014 479.165 320.873 481.852 323.498C482.191 323.83 482.288 324.585 482.288 324.585C482.288 324.585 483.75 322.148 485.371 322.043C488.593 321.835 489.718 322.805 490.906 323.966C491.839 324.878 490.046 326.182 491.242 325.617C492.195 325.168 493.404 325.001 494.609 324.718C495.018 324.622 495.681 324.661 496.151 324.681C498.142 324.761 499.356 325.387 499.847 325.866C499.972 325.989 499.266 325.409 499.133 325.169C498.76 324.493 498.54 323.798 498.17 323.125C497.12 321.223 496.077 315.857 503.448 316.156C507.677 316.328 511.898 316.331 515.534 320.728C516.225 321.563 518.774 318.021 521.364 317.786C522.395 317.692 523.676 317.66 524.717 317.755C528.108 318.063 527.863 319.377 527.843 320.589C527.84 320.777 527.743 321.152 527.743 321.152C527.743 321.152 528.052 320.719 528.207 320.503C529.122 319.221 533.91 319.516 535.826 320.01C537.551 320.456 538.595 322.495 538.595 322.495C538.595 322.495 542.591 321.803 544.217 322.256C546.691 322.946 545.874 324.602 545.159 325.602C544.696 326.251 543.768 327.551 543.768 327.551C543.768 327.551 545.453 326.987 546.408 326.822C554.574 325.416 557.099 327.966 555.134 330.719C555.065 330.816 554.678 330.934 554.678 330.934C554.678 330.934 556.175 332.895 555.898 333.891C555.572 335.068 553.587 335.462 551.518 335.784C541.388 337.36 533.671 334.635 524.077 334.77C510.292 334.963 496.487 335.267 482.852 334.398C480.441 334.245 463.222 334.621 462.204 333.626C461.117 332.564 460.32 329.521 460.542 328.267C460.895 326.273 464.187 324.208 465.859 323.698C467.452 323.211 470.57 325.207 470.57 325.207Z" fill="#666417"/>
<path fillRule="evenodd" clipRule="evenodd" d="M37.571 330.725C36.1861 329.033 40.0244 325.323 40.4744 324.842C42.1609 323.04 46.4156 322.458 48.5122 324.138C48.7795 324.352 49.0158 324.696 49.1969 324.99C49.7564 325.898 50.0492 324.841 50.5561 324.179C51.3656 323.122 52.7637 322.432 53.8592 322.724C55.1638 323.072 56.023 324.407 56.416 324.896C56.438 324.923 56.4858 325.055 56.5301 325.039C57.887 324.536 58.3911 322.665 59.4102 321.696C60.7013 320.47 62.6096 319.728 64.2904 319.273C68.8298 318.044 73.7285 322.297 73.8754 326.724C74.0036 330.585 76.0858 337.972 71.523 338.377C69.1681 338.586 64.7548 338.164 62.3503 337.712C59.0762 337.099 54.1598 337.854 50.8224 337.49C46.6838 337.038 39.2957 332.833 37.571 330.725Z" fill="#363520"/>
<path fillRule="evenodd" clipRule="evenodd" d="M517.105 334.951C514.423 335.153 519.133 324.695 522.224 323.176C524.431 322.09 528.165 320.792 530.262 322.472C530.529 322.686 530.765 323.03 530.946 323.324C531.506 324.232 531.539 322.839 532.306 322.513C533.349 322.069 534.399 321.636 535.474 321.277C536.275 321.009 537.772 322.741 538.166 323.23C538.187 323.257 538.235 323.389 538.28 323.373C539.637 322.869 540.141 320.999 541.16 320.03C542.451 318.804 544.359 318.061 546.04 317.606C550.579 316.378 555.478 320.631 555.625 325.058C555.753 328.919 554.872 331.541 550.309 331.946C547.954 332.155 545.865 332.661 543.461 332.21C540.187 331.596 538.793 336.662 535.521 335.913C532.2 335.154 523.638 334.46 517.105 334.951Z" fill="#363520"/>
<path fillRule="evenodd" clipRule="evenodd" d="M252.749 318.967C255.063 318.407 257.55 323.284 257.572 322.456C257.764 315.176 277.567 317.71 283.186 321.116C283.895 321.546 284.097 322.527 284.097 322.527C284.097 322.527 286.944 315.984 290.332 315.849C297.071 315.579 299.376 318.221 301.435 320.272C303.139 321.969 301.762 325.298 302.823 323.866C303.471 322.991 307.285 318.329 312.993 319.298C316.622 319.915 318.666 324.14 318.613 323.819C318.387 322.446 317.008 319.87 316.938 319.37C316.074 313.209 322.415 308.58 331.343 315.499C332.135 316.113 334.763 308.189 340.807 310.459C342.564 311.12 344.822 311.763 348.514 314.583C349.866 315.616 352.022 320.026 352.062 318.461C352.181 313.82 362.651 311.318 364.133 311.193C371.781 310.545 379.407 315.769 379.366 317.341C379.359 317.585 379.157 318.072 379.157 318.072C379.157 318.072 379.803 317.511 380.127 317.23C382.041 315.567 392.054 315.949 396.062 316.591C399.669 317.169 401.852 319.815 401.852 319.815C401.852 319.815 410.209 318.916 413.61 319.505C418.783 320.399 417.073 322.548 415.58 323.846C414.61 324.688 412.671 326.374 412.671 326.374C412.671 326.374 416.193 325.643 418.191 325.429C435.269 323.604 440.55 326.913 436.441 330.485C436.296 330.61 435.485 330.764 435.485 330.764C435.485 330.764 438.616 333.308 438.038 334.6C437.355 336.127 433.205 336.639 428.877 337.057C407.693 339.101 391.553 335.566 371.491 335.741C342.661 335.991 313.792 336.386 285.278 335.259C280.234 335.059 244.226 335.548 242.097 334.257C239.822 332.878 244.063 329.92 244.528 328.293C245.266 325.705 247.784 320.169 252.749 318.967Z" fill="#666417"/>
<path fillRule="evenodd" clipRule="evenodd" d="M88.7638 336.728C88.8641 337.718 74.9796 328.167 77.3284 323.918C80.4282 318.312 85.9248 318.832 88.1772 321.929C88.4788 322.343 89.1486 323.155 89.1486 323.155C89.1486 323.155 89.0208 322.056 88.8359 321.519C88.0564 319.252 90.6567 316.697 95.7784 316.252C99.1822 315.957 103.738 317.548 105.033 319.33C105.255 319.635 105.272 320.317 105.272 320.317C105.272 320.317 105.603 318.324 105.898 317.339C106.35 315.833 108.578 314.586 111.226 314.772C115.33 315.06 116.188 318.267 117.609 319.763C117.868 320.037 118.748 318.932 120.185 318.512C121.128 318.235 122.522 318.543 123.334 318.734C128.025 319.837 128.188 324.218 126.982 324.732C126.982 324.732 136.618 326.836 135.365 328.037C135.246 328.15 137.628 325.136 137.946 324.788C140.34 322.162 145.911 322.041 149.005 324.246C150.806 325.529 152.349 327.258 152.075 327.306C151.292 327.444 153.558 323.625 153.928 323.299C159.172 318.671 167.847 323.38 168.798 327.3C168.914 327.783 171.346 325.485 174.27 327.249C174.618 327.459 177.487 326.716 179.251 327.393C180.622 327.92 184.416 330.176 184.481 330.577C184.7 331.93 178.043 335.497 177.743 335.622C170.58 338.604 120.325 335.605 109.039 335.739C100.007 335.846 88.7638 336.728 88.7638 336.728Z" fill="#363520"/>
<path fillRule="evenodd" clipRule="evenodd" d="M215.989 337.645C213.042 337.695 198.793 333.068 201.141 327.673C204.241 320.551 212.729 321.362 214.982 325.296C215.283 325.823 215.953 326.854 215.953 326.854C215.953 326.854 215.825 325.459 215.64 324.776C214.861 321.897 216.838 319.475 221.959 318.91C225.363 318.534 229.919 320.556 231.214 322.819C231.436 323.206 231.453 324.073 231.453 324.073C231.453 324.073 231.783 321.541 232.079 320.291C232.531 318.377 234.558 317.452 237.16 316.998C240.836 316.357 244.923 324.359 245.23 324.402C244.284 322.61 250.17 318.328 252.32 321.082C254.112 323.38 256.012 327.508 254.127 328.998C253.823 329.238 258.68 327.622 260.328 328.825C261.979 330.032 261.962 334.098 262.311 332.19C262.865 329.162 278.686 324.692 278.87 331.965C278.88 332.351 279.56 328.545 280.687 327.604C286.735 322.556 294.028 327.962 294.978 332.942C295.192 334.065 293.576 337.307 292.47 337.892C285.306 341.679 244.922 336.21 233.636 336.38C224.604 336.516 215.989 337.645 215.989 337.645Z" fill="#363520"/>
<path fillRule="evenodd" clipRule="evenodd" d="M362.557 335.879C353.525 336.034 342.8 335.836 341.662 335.529C336.402 334.106 327.497 331.477 329.846 325.31C332.946 317.169 341.434 318.097 343.686 322.593C343.988 323.196 344.658 324.374 344.658 324.374C344.658 324.374 344.53 322.779 344.345 321.998C343.791 319.66 344.628 317.587 346.995 316.35C347.961 315.846 349.18 315.481 350.664 315.293C354.068 314.864 358.623 317.175 359.919 319.762C360.14 320.204 360.158 321.195 360.158 321.195C360.158 321.195 360.488 318.301 360.783 316.872C361.235 314.685 363.262 313.627 365.865 313.108C369.541 312.375 373.628 321.523 373.935 321.571C372.988 319.523 378.875 314.628 381.025 317.776C382.817 320.403 384.716 325.121 382.832 326.825C382.527 327.1 387.385 325.252 389.033 326.628C390.684 328.006 390.666 332.654 391.015 330.474C391.57 327.012 407.39 321.903 407.575 330.217C407.585 330.657 408.264 326.307 409.391 325.232C415.439 319.461 422.732 325.641 423.683 331.333C423.897 332.617 422.281 336.323 421.174 336.992C414.011 341.321 373.843 335.684 362.557 335.879Z" fill="#363520"/>
<path fillRule="evenodd" clipRule="evenodd" d="M-10.7869 334.311C-9.68166 333.66 15.945 327.55 18.6245 327.382C21.2067 327.22 24.4426 324.095 26.7839 324.593C29.4007 325.15 35.7493 327.724 38.0516 328.214C40.5247 328.741 42.8703 329.194 45.1619 329.615C51.2166 330.729 56.8943 331.619 63.5551 333.036C63.6351 333.053 64.6593 333.466 64.9315 333.33C65.9385 332.823 76.9243 329.113 76.9243 329.113C76.9243 329.113 94.5364 327.394 101.162 325.731C106.933 324.281 124.534 329.147 130.266 330.367C140.497 332.545 152.452 333.529 162.463 332.901C171.757 332.317 182.255 331.01 191.993 330.245C202.297 329.436 214.429 328.138 218.509 329.006C218.725 329.052 240.106 335.238 255.798 334.253C269.956 333.364 285.006 331.787 299.779 330.86C315.818 329.854 337.771 328.617 353.687 326.487C357.802 325.937 356.895 326.685 360.88 325.948C364.319 325.311 379.745 326.638 382.966 327.825C394.392 332.036 399.511 334.607 405.234 333.547C414.981 331.744 435.312 337.661 444.891 333.442C467.83 323.336 481.394 331.399 502.696 331.442C506.454 331.451 514.882 332.634 518.626 332.133C524.508 331.346 543.178 326.268 536.604 325.725C534.82 325.577 538.277 334.719 538.389 335.978C539.469 348.198 538.286 434.069 532.727 428.209C527.933 423.156 -2.88252 434.75 -5.64842 424.774C-6.96222 420.036 -11.715 343.312 -10.2489 338.421C-9.20627 334.945 -6.10222 332.876 -6.67161 333.162L-10.7869 334.311Z" fill="#7F654A"/>
<path fillRule="evenodd" clipRule="evenodd" d="M-29.3543 400.068C-29.599 393.77 45.8721 382.792 70.0307 383.654C81.019 384.047 86.4296 371.377 76.7294 365.097C72.1516 362.133 56.7858 363.547 50.1684 363.361C47.4322 363.284 46.8945 359.991 47.1917 358.84C49.2602 350.839 130.954 356.153 140.506 355.649C163.524 354.435 255.379 364.907 268.928 369.764C276.314 372.413 308.99 365.431 311.473 360.605C312.198 359.195 279.524 360.534 281.145 359.168C285.712 355.317 301.169 353.152 308.081 352.284C441.33 335.547 312.628 387.096 288.477 387.923C226.143 390.06 493.19 408.241 492.336 412.628C491.286 418.025 298.295 408.228 278.915 412.07C260.732 415.675 208.231 406.302 182.98 405.989C174.803 405.887 163.418 412.782 155.71 415.394C151.068 416.968 143.266 414.282 138.088 414.957C122.882 416.937 108.902 425.783 93.6957 427.763C77.2108 429.91 -1.39158 423.693 -17.8434 416.524C-23.118 414.226 -29.1258 405.952 -29.3543 400.068Z" fill="#FF8A00"/>
<path fillRule="evenodd" clipRule="evenodd" d="M551.417 350.931C556.754 344.549 492.098 347.512 485.879 346.891C471.563 345.459 455.995 348.654 442.117 351.788C428.152 354.942 306.66 368.389 310.903 387.174C311.184 388.417 312.266 391.714 314.294 393.976C315.365 395.17 316.699 396.075 318.318 396.237C349.746 399.379 389.83 397.964 424.345 398.752C443.334 399.187 464.857 401.152 482.632 405.531C493.991 408.329 484.076 417.069 488.329 422.268C496.645 432.43 534.612 431.452 546.052 429.94C566.212 427.274 578.241 393.633 569.685 376.667C562.962 363.335 547.387 355.495 533.855 352.162" fill="#FF8A00"/>
<path fillRule="evenodd" clipRule="evenodd" d="M290.25 336.872C290.229 335.366 296.247 332.423 297.711 332.485C302.578 332.691 309.509 332.754 314.322 332.828C320.564 332.923 326.295 335.217 332.552 335.313L335.274 335.354C335.728 335.361 336.181 335.382 336.635 335.374C337.18 335.367 337.725 335.348 338.27 335.308C339.951 335.186 428.394 338.33 489.673 342.916C520.877 345.249 545.038 347.958 547.113 350.799C548.544 352.755 342.33 341.456 332.027 343.811C315.362 347.62 295.921 352.175 278.672 351.911C266.722 351.729 252.318 352.333 240.523 354.505C233.722 355.758 226.614 355.667 219.716 356.274C213.438 356.827 207.102 357.034 200.911 357.711C198.046 358.026 195.003 359.164 192.179 359.121C185.167 359.014 177.629 358.626 170.32 358.515C167.256 358.467 105.248 358.881 104.839 357.587C102.719 350.888 177.123 350.794 185.541 348.131C185.926 348.009 190.006 347.025 189.831 346.471C189.049 344.002 53.4783 343.703 2.88789 341.471C-8.43401 340.971 -9.52082 339.14 -10.6386 338.559C-0.530474 338.314 5.2336 336.195 15.3587 335.99C104.905 334.172 199.465 335.794 290.25 336.872Z" fill="#46391A"/>
<path fillRule="evenodd" clipRule="evenodd" d="M548.764 359.512C550.729 358.232 534.647 362.628 530.028 363.22C517.361 364.843 505.618 370.026 492.485 369.906C464.747 369.653 361.099 371.247 360.334 383.058C360.214 384.914 364.529 386.802 365.946 386.893C388.946 388.381 411.872 387.044 435.07 388.544C452.51 389.673 534.098 404.142 545.815 390.935C558.816 376.279 538.823 373.131 545.785 361.202" fill="#46391A"/>
<path fillRule="evenodd" clipRule="evenodd" d="M239.903 384.367C235.281 382.136 207.941 386.828 199.666 387.038C151.706 388.256 103.368 391.44 55.5245 385.705C42.4348 384.135 27.0486 383.537 14.6795 379.697C8.1528 377.671 -38.4943 378.104 -38.1368 386.6C-37.6937 397.127 68.3355 390.258 70.9707 401.051C71.6761 403.942 62.2579 405.402 60.9283 405.501C50.7035 406.262 -22.4202 401.318 -24.4164 410.072C-25.7882 416.089 16.42 423.995 28.0109 424.952C38.4322 425.81 49.4755 423.848 59.9537 423.716C89.4897 423.342 119.523 422.248 149.085 420.12C158.893 419.413 173.301 420.665 182.969 419.719C192.324 418.803 249.638 423.802 258.997 420.05C264.462 417.859 204.813 409.955 202.567 409.443C193.511 407.377 126.164 403.882 124.839 398.458C124.652 397.69 127.904 397.697 128.071 397.669C145.231 394.853 165.941 396.317 183.614 396.093C208.747 395.775 234.095 393.126 259.001 392.811C274.673 392.613 304.987 394.965 318.268 386.617C320.789 385.033 312.443 383.341 312.034 383.288C287.23 380.103 257.297 378.96 235.247 384.344" fill="#46391A"/>
<path fillRule="evenodd" clipRule="evenodd" d="M262.826 346.42C262.826 346.42 266.85 345.78 271.943 345.8C293.307 345.886 314.473 348.199 335.712 348.284C367.465 348.41 401.087 347.508 432.358 350.503C455.318 352.703 478.396 347.723 501.147 350.908C502.671 351.123 511.992 351.677 512.747 352.66C516.995 358.184 500.761 358.666 497.693 358.894C470.652 360.914 331.818 367.461 325.076 385.227C323.119 390.385 340.885 391.015 343.794 391.072C379.133 391.765 541.051 396.216 534.453 413.602C531.103 422.431 478.465 421.836 468.1 422.388C431.967 424.316 395.841 426.872 359.616 426.285C304.923 425.399 250.159 418.359 196.045 413.176C174.46 411.108 151.543 408.748 129.793 408.322C109.263 407.92 81.6938 411.993 62.4346 408.054C55.6606 406.669 41.8863 410.202 33.2945 410.168C30.3063 410.156 12.6294 407.226 13.6829 404.451C15.9292 398.528 87.5404 399.217 100.554 399.549C130.625 400.319 192.135 398.949 222.052 400.85C283.384 404.745 313.715 405.298 374.572 409.163C404.216 411.047 434.412 411.893 464.424 412.012C465.674 412.017 473.522 411.507 473.728 410.344C474.173 407.843 464.904 407.524 463.207 407.417C431.854 405.425 400.683 407.117 369.244 404.813C331.362 402.038 297.887 398.086 261.252 397.321C250.671 397.099 242.009 396.49 231.076 395.796C215.703 394.819 192.662 394.205 177.252 393.81C140.375 392.868 112.8 398.037 67.786 389.896C0.784106 377.779 -2.24676 389.773 -14.8711 375.482C-15.6575 374.592 -20.9328 375.368 -21.2926 374.015C-21.4262 373.505 -19.5045 372.776 -19.3172 372.71C0.698788 365.848 41.9179 364.303 64.5492 363.469C71.0061 363.232 77.4573 363.094 83.9104 363.032C132.894 362.569 181.8 366.59 230.878 365.966C272.258 365.441 313.565 361.788 354.205 360.293C355.566 360.242 358.692 360.485 359.571 359.526C359.97 359.093 348.752 357.796 347.971 357.775C331.043 357.342 314.201 357.292 297.334 356.965C286.84 356.761 276.335 356.45 265.794 355.876C219.695 353.357 173.354 351.498 127.164 352.833C119.203 353.063 105.431 353.616 89.7848 354.038C85.4574 354.155 80.989 354.262 76.4594 354.35C47.2488 354.913 15.5508 354.664 3.71297 351.03C0.340803 349.995 -17.2527 348.961 -18.0466 345.96C-18.5085 344.218 -11.6899 342.669 -10.1597 342.451C12.0543 339.281 47.2748 343.619 72.2025 343.302C74.7065 343.271 77.2013 343.546 79.7054 343.595C140.705 344.789 202.487 340.64 262.826 346.42Z" fill="#695323"/>
<path fillRule="evenodd" clipRule="evenodd" d="M283.269 391.13C283.604 391.13 283.876 391.473 283.876 391.894C283.876 392.317 283.604 392.659 283.269 392.659C282.934 392.659 282.662 392.317 282.662 391.894C282.662 391.473 282.934 391.13 283.269 391.13ZM286.137 389.92C286.472 389.92 286.744 390.263 286.744 390.684C286.744 391.107 286.472 391.449 286.137 391.449C285.803 391.449 285.53 391.107 285.53 390.684C285.53 390.263 285.803 389.92 286.137 389.92ZM127.586 206.918C128.167 206.918 128.639 207.512 128.639 208.245C128.639 208.977 128.167 209.571 127.586 209.571C127.005 209.571 126.532 208.977 126.532 208.245C126.532 207.512 127.005 206.918 127.586 206.918ZM112.538 199.962C112.874 199.962 113.145 200.304 113.145 200.726C113.145 201.148 112.874 201.49 112.538 201.49C112.203 201.49 111.932 201.148 111.932 200.726C111.932 200.304 112.203 199.962 112.538 199.962ZM348.682 364.503C349.017 364.503 349.29 364.846 349.29 365.268C349.29 365.69 349.017 366.032 348.682 366.032C348.347 366.032 348.076 365.69 348.076 365.268C348.076 364.846 348.347 364.503 348.682 364.503ZM322.397 365.082C322.732 365.082 323.004 365.425 323.004 365.846C323.004 366.269 322.732 366.611 322.397 366.611C322.062 366.611 321.789 366.269 321.789 365.846C321.789 365.425 322.062 365.082 322.397 365.082ZM449.655 359.439C449.99 359.439 450.262 359.782 450.262 360.203C450.262 360.626 449.99 360.968 449.655 360.968C449.32 360.968 449.049 360.626 449.049 360.203C449.049 359.782 449.32 359.439 449.655 359.439ZM260.555 346.415C260.89 346.415 261.162 346.758 261.162 347.18C261.162 347.601 260.89 347.945 260.555 347.945C260.22 347.945 259.948 347.601 259.948 347.18C259.948 346.758 260.22 346.415 260.555 346.415ZM240.3 343.694C240.882 343.694 241.354 344.288 241.354 345.021C241.354 345.752 240.882 346.347 240.3 346.347C239.719 346.347 239.247 345.752 239.247 345.021C239.247 344.288 239.719 343.694 240.3 343.694ZM290.657 342.347C290.992 342.347 291.264 342.689 291.264 343.112C291.264 343.533 290.992 343.876 290.657 343.876C290.322 343.876 290.051 343.533 290.051 343.112C290.051 342.689 290.322 342.347 290.657 342.347ZM295.11 341.273C295.445 341.273 295.718 341.615 295.718 342.037C295.718 342.459 295.445 342.802 295.11 342.802C294.775 342.802 294.503 342.459 294.503 342.037C294.503 341.615 294.775 341.273 295.11 341.273ZM458.172 346.995C458.507 346.995 458.779 347.337 458.779 347.759C458.779 348.181 458.507 348.524 458.172 348.524C457.837 348.524 457.564 348.181 457.564 347.759C457.564 347.337 457.837 346.995 458.172 346.995ZM479.606 341.7C480.189 341.7 480.66 342.294 480.66 343.027C480.66 343.758 480.189 344.353 479.606 344.353C479.025 344.353 478.553 343.758 478.553 343.027C478.553 342.294 479.025 341.7 479.606 341.7ZM290.137 333.186C290.472 333.186 290.744 333.528 290.744 333.951C290.744 334.372 290.472 334.715 290.137 334.715C289.802 334.715 289.53 334.372 289.53 333.951C289.53 333.528 289.802 333.186 290.137 333.186ZM378.581 336.532C379.162 336.532 379.634 337.126 379.634 337.859C379.634 338.591 379.162 339.186 378.581 339.186C378 339.186 377.528 338.591 377.528 337.859C377.528 337.126 378 336.532 378.581 336.532ZM473.758 334.259C474.093 334.259 474.365 334.601 474.365 335.023C474.365 335.445 474.093 335.788 473.758 335.788C473.423 335.788 473.151 335.445 473.151 335.023C473.151 334.601 473.423 334.259 473.758 334.259ZM199.86 323.716C200.442 323.716 200.914 324.31 200.914 325.043C200.914 325.775 200.442 326.37 199.86 326.37C199.279 326.37 198.807 325.775 198.807 325.043C198.807 324.31 199.279 323.716 199.86 323.716ZM208.01 322.463C208.346 322.463 208.617 322.805 208.617 323.228C208.617 323.649 208.346 323.992 208.01 323.992C207.675 323.992 207.404 323.649 207.404 323.228C207.404 322.805 207.675 322.463 208.01 322.463ZM376.542 331.388C377.123 331.388 377.596 331.982 377.596 332.715C377.596 333.447 377.123 334.042 376.542 334.042C375.961 334.042 375.489 333.447 375.489 332.715C375.489 331.982 375.961 331.388 376.542 331.388ZM279.627 317.821C279.962 317.821 280.234 318.164 280.234 318.586C280.234 319.008 279.962 319.35 279.627 319.35C279.292 319.35 279.021 319.008 279.021 318.586C279.021 318.164 279.292 317.821 279.627 317.821ZM205.56 317.414C205.895 317.414 206.168 317.756 206.168 318.178C206.168 318.6 205.895 318.943 205.56 318.943C205.225 318.943 204.953 318.6 204.953 318.178C204.953 317.756 205.225 317.414 205.56 317.414ZM185.015 316.448C185.35 316.448 185.621 316.791 185.621 317.213C185.621 317.634 185.35 317.977 185.015 317.977C184.679 317.977 184.408 317.634 184.408 317.213C184.408 316.791 184.679 316.448 185.015 316.448ZM285.434 313.327C286.016 313.327 286.489 313.921 286.489 314.653C286.489 315.386 286.016 315.98 285.434 315.98C284.853 315.98 284.381 315.386 284.381 314.653C284.381 313.921 284.853 313.327 285.434 313.327ZM322.763 306.282C323.098 306.282 323.37 306.625 323.37 307.047C323.37 307.469 323.098 307.811 322.763 307.811C322.428 307.811 322.156 307.469 322.156 307.047C322.156 306.625 322.428 306.282 322.763 306.282ZM232.867 301.276C233.448 301.276 233.92 301.87 233.92 302.602C233.92 303.335 233.448 303.929 232.867 303.929C232.285 303.929 231.814 303.335 231.814 302.602C231.814 301.87 232.285 301.276 232.867 301.276ZM246.465 301.937C246.8 301.937 247.072 302.279 247.072 302.702C247.072 303.123 246.8 303.466 246.465 303.466C246.13 303.466 245.858 303.123 245.858 302.702C245.858 302.279 246.13 301.937 246.465 301.937ZM459.155 300.899C459.49 300.899 459.762 301.241 459.762 301.663C459.762 302.085 459.49 302.427 459.155 302.427C458.82 302.427 458.548 302.085 458.548 301.663C458.548 301.241 458.82 300.899 459.155 300.899ZM463.926 298.984C464.507 298.984 464.979 299.578 464.979 300.311C464.979 301.043 464.507 301.638 463.926 301.638C463.345 301.638 462.873 301.043 462.873 300.311C462.873 299.578 463.345 298.984 463.926 298.984ZM171.507 298.726C171.842 298.726 172.115 299.068 172.115 299.491C172.115 299.912 171.842 300.255 171.507 300.255C171.172 300.255 170.9 299.912 170.9 299.491C170.9 299.068 171.172 298.726 171.507 298.726ZM76.7045 296.122C77.0394 296.122 77.3115 296.464 77.3115 296.886C77.3115 297.308 77.0394 297.651 76.7045 297.651C76.3695 297.651 76.0974 297.308 76.0974 296.886C76.0974 296.464 76.3695 296.122 76.7045 296.122ZM105.714 294.877C106.049 294.877 106.321 295.221 106.321 295.642C106.321 296.064 106.049 296.407 105.714 296.407C105.379 296.407 105.107 296.064 105.107 295.642C105.107 295.221 105.379 294.877 105.714 294.877ZM134.724 293.634C135.059 293.634 135.33 293.976 135.33 294.399C135.33 294.82 135.059 295.163 134.724 295.163C134.389 295.163 134.117 294.82 134.117 294.399C134.117 293.976 134.389 293.634 134.724 293.634ZM374.443 293.568C374.778 293.568 375.049 293.91 375.049 294.332C375.049 294.754 374.778 295.096 374.443 295.096C374.108 295.096 373.836 294.754 373.836 294.332C373.836 293.91 374.108 293.568 374.443 293.568ZM102.766 291.829C103.101 291.829 103.373 292.172 103.373 292.594C103.373 293.016 103.101 293.359 102.766 293.359C102.431 293.359 102.159 293.016 102.159 292.594C102.159 292.172 102.431 291.829 102.766 291.829ZM83.3779 289.076C83.9592 289.076 84.4314 289.671 84.4314 290.403C84.4314 291.136 83.9592 291.73 83.3779 291.73C82.7964 291.73 82.3242 291.136 82.3242 290.403C82.3242 289.671 82.7964 289.076 83.3779 289.076ZM35.929 268.004C36.5105 268.004 36.9825 268.598 36.9825 269.331C36.9825 270.063 36.5105 270.657 35.929 270.657C35.3475 270.657 34.8755 270.063 34.8755 269.331C34.8755 268.598 35.3475 268.004 35.929 268.004ZM490.923 283.153C491.258 283.153 491.53 283.495 491.53 283.916C491.53 284.339 491.258 284.681 490.923 284.681C490.588 284.681 490.315 284.339 490.315 283.916C490.315 283.495 490.588 283.153 490.923 283.153ZM33.8904 262.86C34.4719 262.86 34.944 263.454 34.944 264.187C34.944 264.918 34.4719 265.513 33.8904 265.513C33.3089 265.513 32.8369 264.918 32.8369 264.187C32.8369 263.454 33.3089 262.86 33.8904 262.86ZM261.069 281.204C261.651 281.204 262.123 281.799 262.123 282.531C262.123 283.263 261.651 283.858 261.069 283.858C260.488 283.858 260.016 283.263 260.016 282.531C260.016 281.799 260.488 281.204 261.069 281.204ZM491.796 279.842C492.131 279.842 492.403 280.185 492.403 280.606C492.403 281.028 492.131 281.371 491.796 281.371C491.461 281.371 491.188 281.028 491.188 280.606C491.188 280.185 491.461 279.842 491.796 279.842ZM369.174 278.344C369.51 278.344 369.781 278.686 369.781 279.108C369.781 279.53 369.51 279.872 369.174 279.872C368.839 279.872 368.566 279.53 368.566 279.108C368.566 278.686 368.839 278.344 369.174 278.344ZM512.771 276.683C513.352 276.683 513.824 277.277 513.824 278.01C513.824 278.742 513.352 279.336 512.771 279.336C512.189 279.336 511.718 278.742 511.718 278.01C511.718 277.277 512.189 276.683 512.771 276.683ZM378.016 275.224C378.598 275.224 379.069 275.819 379.069 276.551C379.069 277.284 378.598 277.878 378.016 277.878C377.435 277.878 376.962 277.284 376.962 276.551C376.962 275.819 377.435 275.224 378.016 275.224ZM515.4 272.638C515.735 272.638 516.007 272.98 516.007 273.402C516.007 273.824 515.735 274.167 515.4 274.167C515.065 274.167 514.793 273.824 514.793 273.402C514.793 272.98 515.065 272.638 515.4 272.638ZM9.31785 266.574C9.65289 266.574 9.92494 266.917 9.92494 267.338C9.92494 267.761 9.65289 268.103 9.31785 268.103C8.98292 268.103 8.71087 267.761 8.71087 267.338C8.71087 266.917 8.98292 266.574 9.31785 266.574ZM542.085 265.527C542.444 265.527 542.735 265.883 542.735 266.321C542.735 266.759 542.444 267.115 542.085 267.115C541.728 267.115 541.437 266.759 541.437 266.321C541.437 265.883 541.728 265.527 542.085 265.527ZM167.58 394.524C167.915 394.524 168.187 394.847 168.187 395.245C168.187 395.642 167.915 395.965 167.58 395.965C167.245 395.965 166.973 395.642 166.973 395.245C166.973 394.847 167.245 394.524 167.58 394.524ZM170.448 393.382C170.782 393.382 171.055 393.706 171.055 394.104C171.055 394.501 170.782 394.824 170.448 394.824C170.113 394.824 169.84 394.501 169.84 394.104C169.84 393.706 170.113 393.382 170.448 393.382ZM193.351 378.724C193.933 378.724 194.405 379.285 194.405 379.975C194.405 380.665 193.933 381.226 193.351 381.226C192.77 381.226 192.298 380.665 192.298 379.975C192.298 379.285 192.77 378.724 193.351 378.724ZM178.304 372.162C178.639 372.162 178.912 372.485 178.912 372.884C178.912 373.282 178.639 373.605 178.304 373.605C177.969 373.605 177.697 373.282 177.697 372.884C177.697 372.485 177.969 372.162 178.304 372.162ZM339.499 213.014C339.834 213.014 340.106 213.337 340.106 213.735C340.106 214.133 339.834 214.456 339.499 214.456C339.164 214.456 338.891 214.133 338.891 213.735C338.891 213.337 339.164 213.014 339.499 213.014ZM128.397 361.346C128.732 361.346 129.005 361.669 129.005 362.068C129.005 362.466 128.732 362.789 128.397 362.789C128.062 362.789 127.79 362.466 127.79 362.068C127.79 361.669 128.062 361.346 128.397 361.346ZM363.151 201.655C363.486 201.655 363.759 201.978 363.759 202.376C363.759 202.774 363.486 203.097 363.151 203.097C362.816 203.097 362.544 202.774 362.544 202.376C362.544 201.978 362.816 201.655 363.151 201.655ZM251.371 195.953C251.706 195.953 251.978 196.276 251.978 196.674C251.978 197.072 251.706 197.395 251.371 197.395C251.035 197.395 250.764 197.072 250.764 196.674C250.764 196.276 251.035 195.953 251.371 195.953ZM231.117 193.386C231.698 193.386 232.17 193.947 232.17 194.638C232.17 195.328 231.698 195.889 231.117 195.889C230.535 195.889 230.063 195.328 230.063 194.638C230.063 193.947 230.535 193.386 231.117 193.386ZM128.438 350.832C128.773 350.832 129.046 351.155 129.046 351.552C129.046 351.951 128.773 352.274 128.438 352.274C128.103 352.274 127.831 351.951 127.831 351.552C127.831 351.155 128.103 350.832 128.438 350.832ZM132.891 349.818C133.226 349.818 133.498 350.141 133.498 350.54C133.498 350.937 133.226 351.26 132.891 351.26C132.556 351.26 132.285 350.937 132.285 350.54C132.285 350.141 132.556 349.818 132.891 349.818ZM371.668 189.918C372.003 189.918 372.275 190.241 372.275 190.639C372.275 191.037 372.003 191.36 371.668 191.36C371.332 191.36 371.061 191.037 371.061 190.639C371.061 190.241 371.332 189.918 371.668 189.918ZM393.103 184.923C393.684 184.923 394.156 185.484 394.156 186.174C394.156 186.865 393.684 187.426 393.103 187.426C392.522 187.426 392.05 186.865 392.05 186.174C392.05 185.484 392.522 184.923 393.103 184.923ZM127.918 342.191C128.253 342.191 128.525 342.514 128.525 342.912C128.525 343.31 128.253 343.633 127.918 343.633C127.583 343.633 127.31 343.31 127.31 342.912C127.31 342.514 127.583 342.191 127.918 342.191ZM166.072 267.6C166.653 267.6 167.125 268.16 167.125 268.851C167.125 269.542 166.653 270.103 166.072 270.103C165.491 270.103 165.018 269.542 165.018 268.851C165.018 268.16 165.491 267.6 166.072 267.6ZM387.254 177.905C387.588 177.905 387.861 178.228 387.861 178.626C387.861 179.024 387.588 179.347 387.254 179.347C386.919 179.347 386.646 179.024 386.646 178.626C386.646 178.228 386.919 177.905 387.254 177.905ZM190.676 174.544C191.259 174.544 191.73 175.105 191.73 175.795C191.73 176.486 191.259 177.047 190.676 177.047C190.095 177.047 189.623 176.486 189.623 175.795C189.623 175.105 190.095 174.544 190.676 174.544ZM198.826 173.362C199.161 173.362 199.433 173.685 199.433 174.083C199.433 174.481 199.161 174.804 198.826 174.804C198.491 174.804 198.219 174.481 198.219 174.083C198.219 173.685 198.491 173.362 198.826 173.362ZM164.033 262.749C164.615 262.749 165.086 263.309 165.086 264C165.086 264.69 164.615 265.251 164.033 265.251C163.452 265.251 162.98 264.69 162.98 264C162.98 263.309 163.452 262.749 164.033 262.749ZM270.443 168.984C270.778 168.984 271.05 169.307 271.05 169.705C271.05 170.103 270.778 170.426 270.443 170.426C270.108 170.426 269.836 170.103 269.836 169.705C269.836 169.307 270.108 168.984 270.443 168.984ZM196.377 168.6C196.712 168.6 196.984 168.923 196.984 169.321C196.984 169.719 196.712 170.042 196.377 170.042C196.042 170.042 195.769 169.719 195.769 169.321C195.769 168.923 196.042 168.6 196.377 168.6ZM175.83 167.689C176.165 167.689 176.437 168.012 176.437 168.41C176.437 168.808 176.165 169.131 175.83 169.131C175.495 169.131 175.223 168.808 175.223 168.41C175.223 168.012 175.495 167.689 175.83 167.689ZM276.25 164.745C276.833 164.745 277.304 165.305 277.304 165.996C277.304 166.687 276.833 167.248 276.25 167.248C275.669 167.248 275.197 166.687 275.197 165.996C275.197 165.305 275.669 164.745 276.25 164.745ZM313.579 158.101C313.914 158.101 314.186 158.424 314.186 158.822C314.186 159.22 313.914 159.543 313.579 159.543C313.244 159.543 312.972 159.22 312.972 158.822C312.972 158.424 313.244 158.101 313.579 158.101ZM495.017 395.77C495.599 395.77 496.071 396.331 496.071 397.022C496.071 397.712 495.599 398.273 495.017 398.273C494.436 398.273 493.964 397.712 493.964 397.022C493.964 396.331 494.436 395.77 495.017 395.77ZM508.616 396.394C508.951 396.394 509.223 396.717 509.223 397.115C509.223 397.512 508.951 397.836 508.616 397.836C508.281 397.836 508.009 397.512 508.009 397.115C508.009 396.717 508.281 396.394 508.616 396.394ZM449.971 153.023C450.306 153.023 450.578 153.346 450.578 153.744C450.578 154.142 450.306 154.465 449.971 154.465C449.636 154.465 449.364 154.142 449.364 153.744C449.364 153.346 449.636 153.023 449.971 153.023ZM454.742 151.217C455.324 151.217 455.796 151.778 455.796 152.469C455.796 153.159 455.324 153.72 454.742 153.72C454.16 153.72 453.688 153.159 453.688 152.469C453.688 151.778 454.16 151.217 454.742 151.217ZM162.324 150.973C162.659 150.973 162.931 151.297 162.931 151.695C162.931 152.092 162.659 152.416 162.324 152.416C161.989 152.416 161.717 152.092 161.717 151.695C161.717 151.297 161.989 150.973 162.324 150.973ZM67.5207 148.518C67.8557 148.518 68.1276 148.841 68.1276 149.239C68.1276 149.636 67.8557 149.96 67.5207 149.96C67.1856 149.96 66.9136 149.636 66.9136 149.239C66.9136 148.841 67.1856 148.518 67.5207 148.518ZM96.5304 147.344C96.8654 147.344 97.1374 147.667 97.1374 148.065C97.1374 148.463 96.8654 148.786 96.5304 148.786C96.1954 148.786 95.9234 148.463 95.9234 148.065C95.9234 147.667 96.1954 147.344 96.5304 147.344ZM125.541 146.171C125.876 146.171 126.147 146.494 126.147 146.892C126.147 147.29 125.876 147.613 125.541 147.613C125.205 147.613 124.933 147.29 124.933 146.892C124.933 146.494 125.205 146.171 125.541 146.171ZM322.358 138.78C322.693 138.78 322.965 139.103 322.965 139.501C322.965 139.899 322.693 140.222 322.358 140.222C322.023 140.222 321.751 139.899 321.751 139.501C321.751 139.103 322.023 138.78 322.358 138.78ZM93.5825 144.469C93.9175 144.469 94.1895 144.793 94.1895 145.19C94.1895 145.588 93.9175 145.911 93.5825 145.911C93.2475 145.911 92.9755 145.588 92.9755 145.19C92.9755 144.793 93.2475 144.469 93.5825 144.469ZM74.194 141.873C74.7754 141.873 75.2476 142.433 75.2476 143.124C75.2476 143.815 74.7754 144.375 74.194 144.375C73.6125 144.375 73.1405 143.815 73.1405 143.124C73.1405 142.433 73.6125 141.873 74.194 141.873ZM25.7151 139.477C26.2965 139.477 26.7686 140.038 26.7686 140.729C26.7686 141.419 26.2965 141.98 25.7151 141.98C25.1336 141.98 24.6615 141.419 24.6615 140.729C24.6615 140.038 25.1336 139.477 25.7151 139.477ZM481.739 136.285C482.074 136.285 482.346 136.608 482.346 137.006C482.346 137.404 482.074 137.727 481.739 137.727C481.404 137.727 481.132 137.404 481.132 137.006C481.132 136.608 481.404 136.285 481.739 136.285ZM23.6765 134.625C24.258 134.625 24.73 135.186 24.73 135.877C24.73 136.567 24.258 137.128 23.6765 137.128C23.095 137.128 22.623 136.567 22.623 135.877C22.623 135.186 23.095 134.625 23.6765 134.625ZM523.22 376.84C523.801 376.84 524.273 377.4 524.273 378.091C524.273 378.781 523.801 379.342 523.22 379.342C522.639 379.342 522.166 378.781 522.166 378.091C522.166 377.4 522.639 376.84 523.22 376.84ZM482.612 133.163C482.947 133.163 483.219 133.486 483.219 133.884C483.219 134.282 482.947 134.605 482.612 134.605C482.277 134.605 482.005 134.282 482.005 133.884C482.005 133.486 482.277 133.163 482.612 133.163ZM317.09 124.422C317.424 124.422 317.697 124.745 317.697 125.142C317.697 125.54 317.424 125.864 317.09 125.864C316.755 125.864 316.482 125.54 316.482 125.142C316.482 124.745 316.755 124.422 317.09 124.422ZM503.586 130.183C504.169 130.183 504.641 130.744 504.641 131.435C504.641 132.125 504.169 132.686 503.586 132.686C503.005 132.686 502.533 132.125 502.533 131.435C502.533 130.744 503.005 130.183 503.586 130.183ZM325.932 121.48C326.513 121.48 326.985 122.04 326.985 122.731C326.985 123.422 326.513 123.982 325.932 123.982C325.35 123.982 324.878 123.422 324.878 122.731C324.878 122.04 325.35 121.48 325.932 121.48ZM506.216 126.368C506.551 126.368 506.823 126.691 506.823 127.089C506.823 127.487 506.551 127.81 506.216 127.81C505.881 127.81 505.609 127.487 505.609 127.089C505.609 126.691 505.881 126.368 506.216 126.368ZM0.134115 120.649C0.469047 120.649 0.741099 120.972 0.741099 121.37C0.741099 121.768 0.469047 122.091 0.134115 122.091C-0.200925 122.091 -0.472977 121.768 -0.472977 121.37C-0.472977 120.972 -0.200925 120.649 0.134115 120.649ZM532.902 119.661C533.259 119.661 533.55 119.997 533.55 120.41C533.55 120.823 533.259 121.159 532.902 121.159C532.544 121.159 532.253 120.823 532.253 120.41C532.253 119.997 532.544 119.661 532.902 119.661Z" fill="#E5C886"/>
<path fillRule="evenodd" clipRule="evenodd" d="M411.105 304.609L410.795 300.938L437.556 291.951L437.927 302.944L431.08 313.681L415.027 311.801L411.105 304.609Z" fill="#AE904C"/>
<path fillRule="evenodd" clipRule="evenodd" d="M449.152 295.244L449.954 301.99L438.21 305.929L437.206 291.994L449.152 295.244Z" fill="#896F32"/>
<path fillRule="evenodd" clipRule="evenodd" d="M457.325 298.383L425.09 306.99L423.066 350.182L452.919 352.635L457.325 298.383Z" fill="#E5C886"/>
<path fillRule="evenodd" clipRule="evenodd" d="M400.869 303.716L397.49 349.041L423.411 350.283L425.081 307.013L400.869 303.716Z" fill="#E5C886"/>
<path fillRule="evenodd" clipRule="evenodd" d="M391.459 304.524L386.272 347.435L397.579 348.812L401.059 304.162L391.459 304.524Z" fill="#C2A86D"/>
<path fillRule="evenodd" clipRule="evenodd" d="M452.92 352.638L468.442 353.238L471.473 306.055L457.063 298.426L452.92 352.638Z" fill="#C2A86D"/>
<path fillRule="evenodd" clipRule="evenodd" d="M471.512 305.3L500.176 309.281L502.329 326.022L502.802 354.6L467.995 353.236L471.512 305.3Z" fill="#E5C886"/>
<path fillRule="evenodd" clipRule="evenodd" d="M431.795 326.59C432.13 324.217 433.07 322.593 434.929 320.921C435.893 320.049 437.088 319.331 438.133 318.533C438.713 318.091 439.932 317.269 439.932 317.269C439.932 317.269 440.717 318.03 441.171 318.344C441.929 318.873 442.741 319.347 443.461 319.934C445.635 321.693 447.789 324.643 447.528 327.439C447.474 327.984 446.24 345.743 445.964 349.85C445.913 350.594 446.051 351.733 445.886 352.084C441.423 351.62 430.421 350.534 430.233 350.93" fill="#7F664A"/>
<path fillRule="evenodd" clipRule="evenodd" d="M407.781 331.763C408.032 330.023 408.738 328.833 410.136 327.608C410.86 326.969 411.758 326.444 412.544 325.859C412.98 325.535 413.896 324.933 413.896 324.933C413.896 324.933 414.486 325.491 414.827 325.721C415.398 326.109 416.008 326.457 416.55 326.888C418.185 328.178 419.805 330.341 419.61 332.39C419.569 332.789 419.413 349.892 419.289 350.149C415.933 349.808 406.756 349.313 406.615 349.603" fill="#7F664A"/>
<path fillRule="evenodd" clipRule="evenodd" d="M473.55 335.31C473.749 333.956 474.309 333.03 475.416 332.077C475.99 331.579 476.702 331.17 477.325 330.716C477.671 330.463 478.397 329.995 478.397 329.995C478.397 329.995 478.865 330.429 479.136 330.609C479.588 330.911 480.072 331.182 480.502 331.517C481.799 332.522 483.084 334.206 482.93 335.802C482.898 336.112 482.17 346.246 482.007 348.589C481.977 349.014 482.06 349.664 481.962 349.864C479.301 349.597 472.742 348.973 472.63 349.198" fill="#7F664A"/>
<path fillRule="evenodd" clipRule="evenodd" d="M488.595 336.31C488.794 334.955 489.354 334.029 490.461 333.076C491.035 332.579 491.747 332.17 492.37 331.715C492.716 331.463 493.442 330.994 493.442 330.994C493.442 330.994 493.91 331.429 494.181 331.608C494.633 331.91 495.117 332.181 495.547 332.517C496.844 333.521 498.129 335.206 497.975 336.801C497.942 337.112 497.215 347.245 497.052 349.589C497.022 350.013 497.105 350.663 497.007 350.864C494.346 350.597 487.787 349.972 487.675 350.198" fill="#7F664A"/>
<path fillRule="evenodd" clipRule="evenodd" d="M473.816 349.131C474.803 349.161 475.813 349.388 476.762 349.327C478.12 349.241 480.584 349.911 481.955 349.824C482.192 349.809 482.185 347.248 482.156 346.686C482.131 346.26 479.107 347.04 478.89 347.023C476.787 346.847 475 346.6 473.12 346.403C472.575 346.346 472.548 348.963 472.762 349.159C472.762 349.159 473.401 349.118 473.816 349.131Z" fill="#56422C"/>
<path fillRule="evenodd" clipRule="evenodd" d="M414.313 301.585L415.069 303.864L418.332 304.022L419.075 300.419L414.313 301.585Z" fill="#7F664A"/>
<path fillRule="evenodd" clipRule="evenodd" d="M424.593 300.014L431.895 298.192L431.828 301.569L430.131 304.054L424.778 304.063L424.593 300.014Z" fill="#7F664A"/>
<path fillRule="evenodd" clipRule="evenodd" d="M487.943 350.077C487.55 349.951 487.925 347.352 487.965 347.356C488.681 347.426 491.278 347.627 491.762 348.174C492.828 349.38 495.416 348.225 496.932 348.129C497.104 348.119 497.138 348.773 497.143 348.884C497.153 349.024 497.226 350.858 496.99 350.83C496.102 350.726 493.861 350.532 492.966 350.487C491.67 350.421 489.167 350.468 487.943 350.077Z" fill="#5C4A36"/>
<path fillRule="evenodd" clipRule="evenodd" d="M391.588 304.244C391.43 304.222 390.975 304.978 391.059 305.428C391.107 305.703 393.528 305.094 393.68 305.063C395.524 304.698 398.919 304.09 400.567 304.317C405.021 304.928 409.838 306.211 414.561 306.481C416.343 306.584 425.211 307.8 425.234 307.609C425.287 307.212 424.888 306.665 424.888 306.665C424.888 306.665 420.591 305.817 419.518 305.809C413.428 305.759 404.222 303.222 400.989 303.21C398.493 303.2 393.939 304.567 391.588 304.244Z" fill="#7F664A"/>
<path fillRule="evenodd" clipRule="evenodd" d="M425.161 306.562C424.487 306.718 428.627 305.683 429.665 305.474C432.976 304.805 436.12 303.473 439.421 302.607C442.881 301.7 446.594 300.983 449.819 299.611C452.459 298.489 455.337 298.833 457.553 297.891C458.011 297.697 459.161 298.585 459.546 298.751C461.683 299.669 464.233 300.699 465.879 302.183C467.33 303.488 472.059 305.273 472.059 305.273L471.565 306.066C471.565 306.066 470.588 305.796 470.065 305.601C468.803 305.126 467.246 304.892 465.985 304.348C464.391 303.663 462.686 302.881 461.328 301.839C460.874 301.487 458.625 298.693 456.76 299.183C453.783 299.965 448.848 301.999 445.904 302.772C442.186 303.747 438.557 304.155 434.877 305.248C432.574 305.931 424.773 308.392 425.145 307.465L425.161 306.562Z" fill="#7F664A"/>
<path fillRule="evenodd" clipRule="evenodd" d="M471.66 306.114C471.402 305.888 473.587 306.264 473.953 306.339C475.509 306.654 477.128 306.741 478.67 307.127C484.008 308.463 489.828 308.81 495.316 309.451C496.494 309.588 497.978 309.939 499.069 309.841C499.319 309.819 500.396 309.718 500.375 309.423C500.348 309.121 498.985 308.998 498.822 308.957C497.274 308.569 495.722 308.376 494.201 307.919C488.457 306.19 482.442 305.728 476.549 305.382C475.067 305.295 473.323 305.24 472.095 304.933C471.69 304.831 471.061 305.108 471.105 305.626L471.66 306.114Z" fill="#5C4A36"/>
<path fillRule="evenodd" clipRule="evenodd" d="M430.184 350.79C430.184 350.791 438.683 340.852 440.258 343.763C441.201 345.508 444.303 339.899 445.133 339.538C445.571 339.349 446.8 338.38 446.8 338.38C446.8 338.38 446.137 351.942 445.879 352.053" fill="#AB8D6C"/>
<path fillRule="evenodd" clipRule="evenodd" d="M504.113 345.302C504.113 345.302 510.039 341.052 511.046 339.911C512.975 337.724 518.326 328.584 522.886 327.336C523.578 327.146 524.915 328.851 525.592 329.4C527.726 331.135 529.518 338.563 529.622 340.842C529.703 342.617 531.641 344.533 532.504 345.611C532.599 345.73 532.841 346.398 532.769 346.424C532.31 346.591 526.838 348.142 520.075 347.737C513.452 347.34 505.263 345.534 504.113 345.302Z" fill="#E5C886"/>
<path fillRule="evenodd" clipRule="evenodd" d="M523.246 328.206C523.185 328.277 524.656 330.415 524.81 331.03C525.29 332.949 525.401 335.021 525.646 336.982C526.197 341.387 526.795 343.098 524.958 346.773C524.913 346.862 525.133 347.068 526.926 347.068C527.983 347.068 531.44 346.637 532.042 346.035C532.221 345.856 531.102 344.898 530.96 344.756C530.329 344.126 529.656 343.008 529.484 342.148C528.908 339.271 526.766 328.176 523.236 328.176" fill="#C2A86D"/>
<path fillRule="evenodd" clipRule="evenodd" d="M516.352 334.208C516.398 333.897 516.032 334.371 515.908 334.496C515.628 334.779 515.378 335.1 515.123 335.404C514.994 335.559 514.905 335.676 514.817 335.857C514.804 335.885 514.77 335.938 514.77 335.938C514.77 335.938 514.972 335.9 515.067 335.927C515.239 335.975 515.493 336.254 515.493 336.254C515.493 336.254 515.468 336.045 515.496 335.946C515.549 335.756 515.622 335.565 515.693 335.38C515.882 334.893 516.465 334.383 516.527 333.912" fill="#695323"/>
<path fillRule="evenodd" clipRule="evenodd" d="M517.797 334.654C517.795 334.641 517.796 334.493 517.782 334.496C517.667 334.518 517.562 334.835 517.517 334.917C517.302 335.313 517.041 335.683 516.811 336.069C516.797 336.094 516.598 336.584 516.717 336.6C517.265 336.672 517.503 335.272 517.608 334.978C517.651 334.858 517.905 334.358 518.096 334.451" fill="#695323"/>
<path fillRule="evenodd" clipRule="evenodd" d="M519.475 335.226C519.477 335.206 519.461 335.08 519.455 335.085C519.302 335.203 518.924 336.393 518.85 336.596C518.847 336.605 518.667 336.966 518.8 336.984C518.896 336.996 519.034 336.701 519.065 336.649C519.268 336.308 519.402 335.951 519.527 335.575C519.564 335.462 519.63 335.022 519.648 335.024" fill="#695323"/>
<path fillRule="evenodd" clipRule="evenodd" d="M520.849 335.571C520.783 335.455 520.699 335.777 520.694 335.79C520.567 336.162 520.45 336.548 520.348 336.928C520.339 336.96 520.257 337.347 520.353 337.36C520.476 337.376 520.633 337.039 520.663 336.969C520.8 336.653 520.896 336.307 520.991 335.977C521.002 335.936 521.295 335.11 521.225 335.317" fill="#695323"/>
<path fillRule="evenodd" clipRule="evenodd" d="M522.302 336.196C521.985 336.175 521.997 337.023 521.997 337.23C521.997 337.262 522.037 337.618 522.081 337.623C522.156 337.633 522.26 337.229 522.274 337.193C522.393 336.854 522.435 336.501 522.496 336.149C522.518 336.029 522.545 335.668 522.569 335.789" fill="#695323"/>
<path fillRule="evenodd" clipRule="evenodd" d="M523.843 336.647C523.632 336.455 523.517 337.96 523.832 338.001C523.845 338.003 523.868 337.737 523.899 337.579C523.974 337.205 524.046 336.833 524.132 336.462C524.152 336.374 524.172 336.287 524.191 336.199C524.203 336.143 524.259 335.995 524.214 336.029C524.186 336.05 524.235 336.141 524.236 336.143" fill="#695323"/>
<path fillRule="evenodd" clipRule="evenodd" d="M525.064 336.691C525.165 336.741 525.063 336.917 525.069 337.029C525.075 337.139 525.167 338.127 525.292 338.143C525.401 338.157 525.415 337.894 525.417 337.851C525.432 337.464 525.372 337.094 525.456 336.71C525.468 336.655 525.593 335.98 525.597 336.383" fill="#695323"/>
<path fillRule="evenodd" clipRule="evenodd" d="M526.62 336.887C526.641 337.122 526.632 338.195 526.957 338.238C527.021 338.246 526.959 337.885 526.956 337.868C526.89 337.481 526.745 337.12 526.749 336.719C526.749 336.687 526.741 336.17 526.883 336.355" fill="#695323"/>
<path fillRule="evenodd" clipRule="evenodd" d="M527.837 336.783C527.987 336.638 528.065 336.864 528.08 337.005C528.116 337.342 528.085 337.901 528.303 338.184C528.592 338.562 528.67 337.928 528.645 337.769C528.609 337.533 528.589 337.553 528.557 337.314C528.524 337.058 528.501 336.787 528.597 336.542" fill="#695323"/>
<path fillRule="evenodd" clipRule="evenodd" d="M510.999 340.624C511.067 340.31 510.518 340.787 510.33 340.914C509.909 341.199 509.533 341.522 509.15 341.829C508.956 341.984 508.822 342.102 508.69 342.285C508.67 342.313 508.618 342.366 508.618 342.366C508.618 342.366 508.922 342.328 509.066 342.355C509.325 342.404 509.706 342.685 509.706 342.685C509.706 342.685 509.669 342.474 509.71 342.375C509.791 342.183 509.901 341.991 510.008 341.805C510.292 341.314 511.169 340.8 511.262 340.325" fill="#695323"/>
<path fillRule="evenodd" clipRule="evenodd" d="M513.173 341.073C513.169 341.06 513.171 340.911 513.15 340.913C512.977 340.935 512.819 341.256 512.752 341.338C512.428 341.736 512.035 342.109 511.69 342.499C511.668 342.524 511.369 343.017 511.548 343.033C512.373 343.105 512.731 341.696 512.888 341.4C512.953 341.278 513.335 340.774 513.623 340.868" fill="#695323"/>
<path fillRule="evenodd" clipRule="evenodd" d="M515.698 341.65C515.7 341.629 515.677 341.502 515.668 341.507C515.437 341.625 514.869 342.825 514.757 343.029C514.753 343.038 514.482 343.402 514.681 343.419C514.827 343.432 515.035 343.135 515.081 343.082C515.386 342.739 515.588 342.379 515.776 342.001C515.832 341.886 515.93 341.443 515.958 341.445" fill="#695323"/>
<path fillRule="evenodd" clipRule="evenodd" d="M517.765 341.997C517.666 341.879 517.539 342.204 517.532 342.217C517.341 342.592 517.165 342.98 517.011 343.363C516.998 343.395 516.875 343.786 517.018 343.798C517.203 343.815 517.439 343.475 517.485 343.405C517.691 343.086 517.836 342.738 517.978 342.405C517.995 342.364 518.436 341.532 518.33 341.741" fill="#695323"/>
<path fillRule="evenodd" clipRule="evenodd" d="M519.95 342.626C519.473 342.605 519.493 343.459 519.492 343.668C519.492 343.699 519.552 344.058 519.619 344.064C519.732 344.074 519.888 343.667 519.908 343.63C520.089 343.289 520.151 342.934 520.243 342.579C520.275 342.457 520.317 342.095 520.352 342.216" fill="#695323"/>
<path fillRule="evenodd" clipRule="evenodd" d="M522.27 343.081C521.952 342.887 521.779 344.403 522.253 344.445C522.273 344.446 522.307 344.178 522.354 344.019C522.466 343.643 522.575 343.268 522.704 342.894C522.735 342.806 522.764 342.718 522.793 342.629C522.812 342.573 522.895 342.423 522.827 342.458C522.786 342.479 522.859 342.571 522.86 342.573" fill="#695323"/>
<path fillRule="evenodd" clipRule="evenodd" d="M524.106 343.125C524.259 343.175 524.104 343.352 524.113 343.465C524.122 343.576 524.262 344.571 524.45 344.587C524.614 344.602 524.635 344.337 524.638 344.294C524.661 343.903 524.57 343.531 524.696 343.144C524.714 343.089 524.902 342.408 524.909 342.815" fill="#695323"/>
<path fillRule="evenodd" clipRule="evenodd" d="M526.447 343.322C526.48 343.559 526.465 344.64 526.954 344.683C527.052 344.692 526.958 344.327 526.953 344.31C526.854 343.92 526.636 343.556 526.642 343.153C526.642 343.121 526.629 342.6 526.844 342.786" fill="#695323"/>
<path fillRule="evenodd" clipRule="evenodd" d="M528.278 343.218C528.504 343.071 528.622 343.299 528.644 343.441C528.698 343.781 528.652 344.343 528.98 344.629C529.415 345.009 529.532 344.371 529.495 344.211C529.441 343.973 529.41 343.993 529.362 343.752C529.312 343.495 529.277 343.221 529.422 342.975" fill="#695323"/>
<path fillRule="evenodd" clipRule="evenodd" d="M466.969 370.776C466.969 370.776 479.875 361.52 482.067 359.034C486.269 354.272 497.923 334.366 507.855 331.647C509.362 331.235 512.275 334.947 513.747 336.144C518.395 339.922 522.297 356.098 522.524 361.062C522.701 364.928 526.922 369.101 528.801 371.448C529.009 371.709 529.535 373.164 529.379 373.22C528.378 373.584 516.461 376.962 501.733 376.079C487.307 375.215 469.474 371.28 466.969 370.776Z" fill="#CBAF66"/>
<path fillRule="evenodd" clipRule="evenodd" d="M508.639 333.542C508.505 333.698 511.711 338.354 512.045 339.693C513.091 343.873 513.333 348.385 513.866 352.657C515.066 362.25 516.369 365.975 512.367 373.979C512.271 374.172 512.748 374.622 516.653 374.622C518.956 374.622 526.486 373.683 527.796 372.373C528.186 371.981 525.748 369.895 525.439 369.586C524.066 368.214 522.598 365.781 522.225 363.907C520.971 357.642 516.305 333.478 508.617 333.478L508.639 333.542Z" fill="#E5C886"/>
<path fillRule="evenodd" clipRule="evenodd" d="M493.625 346.615C493.724 345.936 492.928 346.969 492.657 347.243C492.047 347.859 491.504 348.556 490.949 349.22C490.667 349.556 490.474 349.811 490.282 350.206C490.253 350.267 490.179 350.381 490.179 350.381C490.179 350.381 490.618 350.3 490.826 350.358C491.202 350.463 491.753 351.071 491.753 351.071C491.753 351.071 491.7 350.615 491.76 350.4C491.876 349.986 492.035 349.57 492.19 349.168C492.601 348.107 493.871 346.997 494.006 345.969" fill="#695323"/>
<path fillRule="evenodd" clipRule="evenodd" d="M496.772 347.586C496.766 347.558 496.769 347.235 496.739 347.241C496.488 347.289 496.259 347.981 496.162 348.158C495.694 349.021 495.125 349.826 494.625 350.668C494.593 350.722 494.161 351.789 494.42 351.823C495.614 351.98 496.132 348.932 496.359 348.292C496.453 348.03 497.007 346.941 497.424 347.143" fill="#695323"/>
<path fillRule="evenodd" clipRule="evenodd" d="M500.427 348.832C500.43 348.788 500.396 348.514 500.383 348.524C500.049 348.78 499.227 351.374 499.066 351.815C499.059 351.835 498.666 352.621 498.955 352.659C499.166 352.687 499.467 352.044 499.534 351.93C499.975 351.188 500.268 350.41 500.539 349.592C500.62 349.345 500.763 348.386 500.803 348.391" fill="#695323"/>
<path fillRule="evenodd" clipRule="evenodd" d="M503.419 349.583C503.276 349.33 503.092 350.031 503.082 350.059C502.805 350.87 502.55 351.71 502.327 352.537C502.308 352.607 502.13 353.452 502.338 353.479C502.605 353.514 502.948 352.78 503.014 352.627C503.312 351.939 503.522 351.186 503.727 350.466C503.752 350.378 504.39 348.578 504.237 349.03" fill="#695323"/>
<path fillRule="evenodd" clipRule="evenodd" d="M506.582 350.944C505.892 350.897 505.92 352.745 505.919 353.197C505.919 353.265 506.006 354.04 506.102 354.053C506.266 354.074 506.492 353.195 506.521 353.115C506.782 352.378 506.873 351.609 507.006 350.842C507.052 350.579 507.113 349.795 507.164 350.057" fill="#695323"/>
<path fillRule="evenodd" clipRule="evenodd" d="M509.94 351.927C509.48 351.509 509.229 354.785 509.915 354.875C509.944 354.878 509.993 354.3 510.062 353.955C510.224 353.142 510.381 352.332 510.568 351.524C510.613 351.333 510.655 351.142 510.697 350.951C510.724 350.828 510.844 350.505 510.746 350.58C510.687 350.626 510.792 350.824 510.794 350.828" fill="#695323"/>
<path fillRule="evenodd" clipRule="evenodd" d="M512.598 352.023C512.818 352.131 512.595 352.513 512.608 352.758C512.621 352.999 512.823 355.149 513.096 355.185C513.333 355.216 513.364 354.642 513.368 354.549C513.401 353.705 513.27 352.9 513.452 352.063C513.478 351.944 513.75 350.473 513.76 351.352" fill="#695323"/>
<path fillRule="evenodd" clipRule="evenodd" d="M515.987 352.448C516.034 352.961 516.013 355.299 516.72 355.392C516.861 355.41 516.725 354.622 516.718 354.585C516.575 353.742 516.26 352.955 516.268 352.083C516.269 352.014 516.25 350.886 516.56 351.29" fill="#695323"/>
<path fillRule="evenodd" clipRule="evenodd" d="M518.637 352.223C518.963 351.906 519.134 352.399 519.167 352.705C519.245 353.441 519.178 354.656 519.653 355.275C520.283 356.096 520.451 354.716 520.398 354.37C520.32 353.857 520.275 353.899 520.206 353.379C520.133 352.822 520.083 352.23 520.292 351.698" fill="#695323"/>
<path fillRule="evenodd" clipRule="evenodd" d="M481.966 360.588C482.115 359.904 480.918 360.944 480.51 361.22C479.592 361.841 478.775 362.543 477.939 363.211C477.516 363.55 477.226 363.807 476.937 364.205C476.893 364.266 476.782 364.381 476.782 364.381C476.782 364.381 477.442 364.3 477.756 364.358C478.32 364.464 479.149 365.076 479.149 365.076C479.149 365.076 479.07 364.617 479.16 364.4C479.335 363.983 479.574 363.564 479.807 363.159C480.426 362.091 482.336 360.972 482.539 359.937" fill="#695323"/>
<path fillRule="evenodd" clipRule="evenodd" d="M486.702 361.566C486.693 361.537 486.697 361.212 486.652 361.218C486.274 361.266 485.929 361.964 485.783 362.142C485.079 363.011 484.222 363.822 483.471 364.671C483.423 364.725 482.773 365.799 483.163 365.834C484.958 365.992 485.738 362.922 486.08 362.277C486.221 362.013 487.054 360.916 487.682 361.119" fill="#695323"/>
<path fillRule="evenodd" clipRule="evenodd" d="M492.201 362.821C492.205 362.777 492.154 362.501 492.134 362.511C491.632 362.769 490.394 365.381 490.152 365.825C490.141 365.846 489.551 366.638 489.986 366.676C490.302 366.704 490.755 366.056 490.856 365.941C491.52 365.194 491.961 364.411 492.369 363.586C492.491 363.337 492.706 362.372 492.767 362.377" fill="#695323"/>
<path fillRule="evenodd" clipRule="evenodd" d="M496.702 363.577C496.486 363.322 496.209 364.029 496.194 364.057C495.779 364.874 495.395 365.72 495.059 366.553C495.031 366.624 494.763 367.474 495.076 367.501C495.478 367.537 495.993 366.798 496.092 366.644C496.541 365.95 496.857 365.192 497.165 364.467C497.203 364.378 498.163 362.565 497.933 363.02" fill="#695323"/>
<path fillRule="evenodd" clipRule="evenodd" d="M501.461 364.948C500.423 364.901 500.465 366.763 500.463 367.217C500.463 367.286 500.594 368.067 500.739 368.08C500.986 368.101 501.326 367.215 501.37 367.135C501.762 366.393 501.899 365.618 502.1 364.846C502.169 364.581 502.259 363.791 502.336 364.055" fill="#695323"/>
<path fillRule="evenodd" clipRule="evenodd" d="M506.513 365.938C505.821 365.517 505.443 368.818 506.476 368.908C506.519 368.911 506.593 368.329 506.697 367.981C506.941 367.162 507.177 366.347 507.459 365.532C507.526 365.34 507.59 365.147 507.653 364.955C507.693 364.832 507.874 364.506 507.727 364.582C507.638 364.628 507.796 364.828 507.799 364.832" fill="#695323"/>
<path fillRule="evenodd" clipRule="evenodd" d="M510.513 366.035C510.844 366.144 510.508 366.529 510.528 366.776C510.548 367.018 510.852 369.183 511.261 369.22C511.618 369.251 511.664 368.674 511.67 368.58C511.72 367.729 511.523 366.919 511.797 366.075C511.836 365.955 512.245 364.474 512.261 365.359" fill="#695323"/>
<path fillRule="evenodd" clipRule="evenodd" d="M515.612 366.463C515.682 366.979 515.651 369.335 516.715 369.428C516.927 369.447 516.722 368.653 516.712 368.616C516.497 367.766 516.022 366.974 516.035 366.096C516.036 366.026 516.007 364.89 516.474 365.296" fill="#695323"/>
<path fillRule="evenodd" clipRule="evenodd" d="M519.599 366.237C520.09 365.917 520.347 366.414 520.395 366.722C520.513 367.463 520.412 368.688 521.127 369.31C522.075 370.138 522.328 368.748 522.248 368.399C522.131 367.882 522.063 367.925 521.959 367.401C521.85 366.84 521.774 366.244 522.089 365.708" fill="#695323"/>
<path fillRule="evenodd" clipRule="evenodd" d="M464.624 394.092C464.139 394.971 465.576 392.324 466.196 391.497C468.711 388.152 472.479 385.367 474.833 381.974C478.438 376.78 495.593 356.074 503.821 355.88C504.856 355.855 505.513 356.769 506.234 357.097C522.871 364.663 528.765 385.406 531.817 398.802C533.009 404.039 524.115 398.066 523.995 398.115C521.82 399.013 520.958 400.744 519.039 398.969C518.574 398.54 518.386 397.613 517.5 397.731C515.831 397.954 515.15 399.2 513.364 399.438C512.758 399.519 507.676 398.855 507.559 398.771C507.056 398.408 507.025 397.398 506.02 397.532C504.739 397.703 504.074 399.332 502.946 399.483C501.708 399.647 501.397 396.803 499.869 397.007C495.776 397.554 493.46 396.516 492.499 396.645C491.053 396.837 490.03 398.321 488.894 398.472C487.82 398.616 486.839 397.449 486.56 397.052C485.957 396.195 483.797 397.71 483.088 397.804C481.721 397.987 480.104 396.856 478.767 397.035C477.386 397.219 476.461 398.304 475.321 398.457C474.212 398.605 473.914 396.047 472.43 396.245C470.81 396.461 468.661 398.157 467.445 396.43C467.223 396.114 464.921 394.021 464.502 395.091L464.624 394.092Z" fill="#8A6821"/>
<path fillRule="evenodd" clipRule="evenodd" d="M488.926 366.432C488.022 366.103 484.509 370.938 487.787 370.976C488.171 370.98 489.053 370.635 489.456 370.441C492.873 368.781 491.14 373.227 493.303 373.252C494.83 373.269 495.914 371.067 497.761 371.088C499.759 371.111 499.577 374.809 500.662 375.918C500.723 375.98 500.758 376.103 500.845 376.104C502.216 376.121 502.57 372.434 503.842 372.448C504.827 372.459 505.779 375.423 506.763 375.433C508.831 375.457 508.492 371.227 510.847 373.634C511.273 374.07 511.7 374.505 512.126 374.941C513.95 376.804 514.718 372.738 516.563 374.622C517.104 375.174 521.416 376.316 521.726 375.418C521.925 374.843 521.353 373.872 521.195 373.383C520.582 371.471 520.28 371.592 518.252 372.242C516.514 372.799 515.027 371.374 513.65 370.898C512.699 370.569 512.181 372.727 511.412 372.718C511.135 372.715 510.721 372.384 510.495 372.154C508.214 369.823 507.741 373.672 504.763 372.643C504.016 372.384 504.427 370.922 503.493 370.598C502.272 370.177 500.913 372.231 499.965 372.22C499.123 372.21 498.28 369.206 497.595 369.425C496.628 369.735 495.29 372.564 494.627 370.499C494.571 370.322 494.326 368.834 494.092 368.832C493.38 368.823 491.929 370.383 491.115 370.644C489.955 371.016 490.063 368.674 489.294 368.408C488.845 368.254 486.538 368.931 485.779 368.923L488.926 366.432Z" fill="#CBAF66"/>
<path fillRule="evenodd" clipRule="evenodd" d="M478.611 380.181C478.537 378.315 475.825 384.095 477.379 384.453C479.108 384.85 480.29 382.571 481.742 382.416C481.914 382.398 482.139 382.577 482.157 382.765C482.582 387.017 485.066 382.835 487.247 384.188C488.036 384.677 487.686 386.139 489.025 386.751C489.098 386.784 489.18 386.787 489.259 386.805C490.511 387.092 491.618 385.32 492.479 385.518C492.686 385.566 493.198 386.685 493.296 386.846C495.09 389.76 497.424 387.207 499.594 386.647C500.348 386.453 502.323 389.604 503.994 389.56C505.366 389.522 506.567 386.858 507.475 387.066C508.665 387.34 508.867 390.299 510.837 390.246C512.308 390.207 513.584 387.457 514.46 387.658C515.467 387.891 516.088 390.313 517.732 390.691C519.191 391.027 520.093 388.067 520.602 388.184C521.33 388.351 521.859 389.993 522.86 390.223C524.324 390.56 525.76 388.23 526.328 388.361C526.771 388.462 527.053 389.921 527.561 390.038C528.061 390.152 528.799 389.48 528.755 389.046C528.695 388.435 529.12 386.717 528.483 386.322C527.809 385.904 525.196 388.353 523.939 388.065C522.962 387.84 521.98 386.004 521.018 386.253C520.54 386.376 519.177 387.415 518.654 386.977C518.34 386.713 517.605 385.2 517.188 385.246C516.218 385.348 515.44 386.296 514.486 386.398C513.535 386.499 513.273 384.404 512.319 384.506C511.258 384.619 510.577 386.259 509.423 385.993L508.956 385.887C508.481 385.592 508.105 384.424 507.58 384.303C506.582 384.074 505.701 385.84 504.774 385.938C503.703 386.053 503.768 384.313 503.075 384.154C502.644 384.055 501.199 385.297 500.607 385.36C499.955 385.429 499.219 383.4 498.634 383.133C497.254 382.503 496.387 384.001 495.232 384.124C493.988 384.256 493.28 382.627 492.506 381.978C491.432 381.075 490.046 383.692 489 383.451C487.017 382.995 487.517 380.695 485.793 381.827C485.556 381.984 485.346 382.204 485.079 382.296C484.68 382.433 484.136 382.624 483.716 382.363C482.941 381.882 482.787 380.3 482.081 379.706C480.47 378.354 478.185 381.84 478.251 378.7C478.263 378.116 478.857 376.642 478.381 376.956C477.882 377.283 477.332 378.977 477.199 379.597L478.611 380.181Z" fill="#CBAF66"/>
<path fillRule="evenodd" clipRule="evenodd" d="M618.798 373.599C618.078 370.232 574.14 358.758 573.441 358.797C561.36 359.496 545.303 363.871 535.921 367.949C527.291 371.699 526.045 376.549 520.75 381.208C508.949 391.585 479.139 395.341 457.996 393.289C444.594 391.989 435.557 387.486 424.762 383.64C395.32 373.151 334.472 344.462 302.137 343.8C233.951 342.404 208.854 382.7 142.626 387.812C94.7874 391.505 45.0104 384.536 16.3149 364.462C6.2629 357.432 -6.66325 343.779 -7.85638 343.943C-14.1824 344.815 -20.5429 345.618 -20.5429 345.618C-20.5429 345.618 -17.5738 347.061 -17.4652 347.095C-14.6583 347.974 -11.6013 348.653 -8.85124 349.576C-2.90282 351.572 0.0955211 354.975 2.18178 358.281C8.04053 367.567 4.05943 379.035 18.6236 386.538C26.2168 390.45 37.8947 392.681 48.4604 393.542C63.728 394.788 77.2818 390.789 92.1925 390.294C111.519 389.651 135.369 393.334 153.485 391.281C164.822 389.996 167.156 385.782 175.436 382.871C180.343 381.146 187.941 380.677 193.605 379.928C203.135 378.667 212.816 377.704 222.651 377.288C236.81 376.687 252.624 378.401 265.152 374.183C284.542 367.655 287.785 340.373 322.877 349.789C323.038 349.832 326.976 350.353 328.972 350.727C334.803 351.817 339.748 353.83 344.683 355.674C359.776 361.315 375.132 367.316 387.32 374.57C398.522 381.238 406.136 389.099 418.286 395.447C425.926 399.437 435.416 402.913 445.502 405.175C460.527 408.543 476.058 409.419 492.036 407.199C546.66 399.605 513.792 374.039 553.292 364.623C571.215 360.351 586.338 366.344 601.897 370.371C602.231 370.458 602.565 370.544 602.899 370.63C603.401 370.759 603.908 370.883 604.417 371.005C609.914 372.324 614.832 374.084 620.271 375.439C620.492 375.493 618.84 373.791 618.798 373.599ZM463.553 399.643C463.346 399.61 463.932 399.531 464.143 399.505C464.841 399.421 465.553 399.371 466.262 399.318C467.606 399.216 468.955 399.129 470.303 399.04C475.307 398.71 480.724 398.231 485.771 398.681C488.06 398.886 491.455 399.497 490.764 401.027C490.545 401.513 490.302 402.008 489.838 402.449C486.879 405.272 478.717 404.854 473.615 404.29C472.519 404.168 471.42 404.039 470.36 403.853C468.394 403.509 466.46 403.122 464.555 402.701C462.982 402.354 460.467 401.697 459.589 400.875C459.165 400.476 459.484 400.206 460.305 400.056C460.927 399.942 461.603 399.905 462.263 399.887L463.553 399.643ZM426.626 392.074C428.407 393.038 429.68 394.498 430.483 395.731C430.654 395.991 430.775 396.259 430.868 396.528C430.937 396.727 430.838 397.033 430.281 396.957C429.421 396.84 427.9 396.049 427.761 395.963C426.561 395.228 424.98 393.37 424.397 392.655C424.164 392.369 422.766 390.414 424.93 391.041C425.228 391.127 425.505 391.23 425.774 391.337L426.626 392.074ZM443.704 394.494C443.564 394.491 443.983 394.495 444.121 394.506C444.432 394.53 444.761 394.585 445.016 394.678C445.308 394.785 445.584 394.902 445.837 395.03C446.563 395.397 447.863 396.081 447.203 396.665C446.753 397.062 445.708 396.967 445.046 396.804C444.17 396.59 443.385 396.204 442.894 395.784C442.633 395.563 442.383 395.273 442.483 395.004L443.704 394.494ZM151.415 388.943C151.299 388.94 150.992 388.924 150.863 388.919C150.311 388.903 149.759 388.86 149.208 388.869C148.752 388.877 148.304 388.924 147.859 388.971C146.652 389.1 143.863 389.333 143.773 390.201C143.745 390.48 144.344 390.623 144.814 390.607C146.416 390.554 147.892 390.173 149.304 389.826C149.782 389.71 150.247 389.579 150.702 389.443L151.415 388.943ZM56.6658 384.971C56.6934 384.955 56.7038 384.937 56.6831 384.917L56.6658 384.971C56.5899 385.014 56.3917 385.041 56.2779 385.04C55.8606 385.034 55.4451 385.02 55.033 384.988C54.3399 384.935 53.6364 384.892 52.9675 384.788C50.0829 384.336 47.3225 383.476 45.0983 382.462C43.2724 381.629 41.8758 380.637 40.3999 379.656C38.8274 378.609 37.3447 377.528 35.7032 376.509C34.9067 376.015 34.0377 375.545 33.0946 375.122C32.1877 374.715 31.1876 374.361 30.1721 374.025C26.7824 372.906 20.3529 372.61 18.1839 374.732C16.7114 376.172 19.4615 377.894 21.7477 378.634C25.8099 379.947 31.0463 380.108 34.6084 381.828C40.0189 384.442 42.8914 388.829 50.426 390.213C52.0036 390.503 53.5795 390.612 55.2175 390.392C58.7193 389.921 60.1107 387.94 58.1969 386.426C57.7365 386.062 57.1538 385.734 56.5003 385.454L56.6658 384.971ZM151.415 388.943C151.466 388.944 151.478 388.943 151.423 388.937L151.415 388.943ZM29.1359 384.662C29.1652 384.718 29.3272 384.655 29.3393 384.653C29.4393 384.63 29.5307 384.586 29.641 384.587C29.9704 384.59 30.5566 384.72 30.829 384.795C31.8066 385.066 32.7032 385.528 33.0894 386.061C33.2532 386.286 33.3567 386.575 33.186 386.809C32.898 387.2 31.8738 387.035 31.3462 386.917C30.3979 386.704 29.1186 386.27 28.7479 385.752L29.1359 384.662ZM224.147 372.862C224.256 372.838 224.373 372.825 224.487 372.811C224.953 372.753 225.415 372.662 225.894 372.662C226.647 372.662 227.394 372.74 228.134 372.813C230.049 372.999 232.739 373.226 234.434 373.847C234.982 374.048 235.544 374.355 235.234 374.716C234.873 375.131 233.667 375.25 232.935 375.299C230.347 375.47 227.134 375.165 224.975 374.405C224.275 374.158 223.606 373.835 223.327 373.418C223.192 373.218 222.99 372.85 223.525 372.732L224.147 372.862C224.102 372.871 224.059 372.883 224.02 372.897C223.951 372.921 224.189 372.896 224.271 372.888L224.147 372.862ZM214.364 371.342C214.321 371.326 214.137 371.244 214.259 371.196C214.611 371.06 215.094 371.037 215.511 371.018C216.435 370.978 217.566 370.982 218.43 371.183C218.856 371.283 219.23 371.45 219.047 371.698C218.456 372.5 216.064 372.614 214.671 372.576C214.257 372.565 213.84 372.538 213.44 372.484C212.575 372.366 211.685 372.057 212.463 371.616L214.364 371.342ZM225.67 368.825C225.099 368.836 226.556 368.462 226.997 368.28C227.994 367.866 229.001 367.457 229.987 367.037C232.832 365.824 235.641 364.589 238.496 363.381C240.92 362.356 243.334 361.325 245.824 360.339C247.612 359.632 249.443 358.952 251.32 358.308C253.291 357.633 255.319 356.999 257.364 356.382C258.357 356.083 259.391 355.817 260.433 355.563C264.628 354.536 271.693 353.076 275.514 355.273C276.085 355.601 276.547 355.983 276.883 356.385C279.338 359.313 274.042 362.244 270.086 364.038C269.141 364.466 268.159 364.871 267.153 365.262C266.11 365.669 265.055 366.071 263.945 366.43C261.684 367.16 259.408 367.883 257.045 368.525C254.788 369.14 252.465 369.698 250.096 370.196C246.732 370.904 242.668 371.675 238.88 371.74C237.72 371.759 236.556 371.752 235.398 371.717C233.222 371.648 229.327 371.557 226.889 371.143C225.585 370.922 223.63 370.454 224.618 369.61C224.821 369.436 225.089 369.281 225.373 369.139L225.67 368.825Z" fill="#E5C886" fill-opacity="0.35"/>
<path fillRule="evenodd" clipRule="evenodd" d="M488.406 305.883C488.402 306.128 488.161 306.364 488.189 306.584C488.198 306.651 488.091 306.745 488.128 306.799C488.147 306.828 488.425 306.846 488.484 306.862C488.574 306.884 488.673 306.929 488.736 306.945C488.786 306.957 488.87 306.998 488.87 306.998C488.87 306.998 488.595 306.986 488.471 306.954C488.188 306.882 487.914 306.836 487.623 306.824C487.502 306.82 487.262 306.839 487.262 306.839C487.262 306.839 487.341 306.794 487.381 306.773C487.449 306.735 487.529 306.701 487.602 306.666C487.82 306.562 487.919 306.416 488.068 306.274C488.119 306.225 488.177 305.869 488.228 305.882L488.406 305.883Z" fill="#46391A"/>
<path fillRule="evenodd" clipRule="evenodd" d="M488.641 305.878C488.637 306.122 488.396 306.358 488.424 306.578C488.433 306.645 488.326 306.74 488.362 306.793C488.382 306.822 488.66 306.84 488.719 306.856C488.809 306.878 488.908 306.923 488.971 306.939C489.02 306.951 489.105 306.992 489.105 306.992C489.105 306.992 488.83 306.981 488.706 306.949C488.423 306.876 488.149 306.83 487.858 306.818C487.737 306.814 487.497 306.833 487.497 306.833C487.497 306.833 487.576 306.789 487.616 306.767C487.684 306.729 487.764 306.695 487.837 306.66C488.055 306.556 488.154 306.41 488.303 306.268C488.354 306.219 488.412 305.863 488.463 305.876L488.641 305.878Z" fill="#7F664A"/>
<path fillRule="evenodd" clipRule="evenodd" d="M492.895 298.291C492.92 298.309 492.84 298.265 492.815 298.25C492.772 298.225 492.729 298.205 492.683 298.187C492.577 298.146 492.464 298.116 492.356 298.085C492.319 298.074 492.245 298.114 492.241 298.075C492.236 298.01 492.276 297.59 492.379 297.452C492.387 297.442 492.753 297.214 492.774 297.228C492.848 297.275 492.873 297.468 492.899 297.539C492.961 297.717 493.027 297.895 493.1 298.07C493.114 298.103 493.193 298.201 493.182 298.242C493.177 298.263 493.109 298.323 493.094 298.345L492.895 298.291Z" fill="#7F664A"/>
<path fillRule="evenodd" clipRule="evenodd" d="M492.518 297.535C492.503 297.497 492.391 297.753 492.375 297.786C492.367 297.801 492.326 297.868 492.333 297.891C492.342 297.918 492.393 297.898 492.42 297.909C492.47 297.929 492.519 297.954 492.567 297.976C492.628 298.006 492.699 298.023 492.758 298.053C492.789 298.069 492.847 298.117 492.847 298.117C492.847 298.117 492.81 298.067 492.794 298.041C492.765 297.995 492.73 297.954 492.704 297.904C492.685 297.866 492.687 297.801 492.655 297.771C492.61 297.724 492.491 297.648 492.471 297.584L492.518 297.535Z" fill="#46391A"/>
<path fillRule="evenodd" clipRule="evenodd" d="M493.807 298.285C493.558 297.737 492.647 298.171 492.489 298.386C492.189 298.796 492.225 300.059 491.835 300.26C491.09 300.644 489.385 300.876 488.477 300.886C488.2 300.889 487.635 301.046 487.435 301.148C487.192 301.275 485.745 304.507 485.306 304.956C484.941 305.331 484.687 305.656 484.321 306.03C484.109 306.247 483.686 306.681 483.686 306.681C483.686 306.681 483.821 306.531 483.908 306.486C484.419 306.222 485.031 305.861 485.607 305.853C486.069 305.848 486.494 305.481 487.007 305.659C488.141 306.053 489.379 306.02 490.068 305.664C490.618 305.381 490.873 304.861 491.304 304.419C491.427 304.293 491.711 303.818 491.792 303.777C491.887 303.728 492.531 303.309 492.811 302.976C493.402 302.272 493.253 300.106 493.208 299.643C493.157 299.119 493.981 298.664 493.807 298.285Z" fill="#5C4A36"/>
<path fillRule="evenodd" clipRule="evenodd" d="M492.157 300.754C491.852 300.916 491.19 301.24 491.03 301.28C490.121 301.507 489.202 301.991 488.305 302.261C488.059 302.335 487.839 302.488 487.644 302.648C487.616 302.671 487.419 302.798 487.444 302.846C487.572 303.089 488.245 303.205 488.469 303.418C488.688 303.626 488.89 303.832 489.104 304.036C489.173 304.101 489.324 304.144 489.358 304.208C489.492 304.46 490.008 304.19 490.148 304.167C490.776 304.061 491.135 302.803 491.456 302.353C491.753 301.936 492.03 301.472 492.322 301.063C492.367 300.998 492.593 300.696 492.525 300.63C492.433 300.543 492.238 300.71 492.157 300.754Z" fill="#46391A"/>
<path fillRule="evenodd" clipRule="evenodd" d="M490.13 300.596C489.326 300.17 485.863 301.589 485.252 301.93C479.947 304.878 475.332 313.61 474.897 315.97C474.746 316.786 474.214 319.164 475.004 319.754C475.53 320.146 476.216 321.767 476.59 321.445C477.736 320.458 479.341 315.696 479.914 314.319C480.64 312.57 480.693 312.431 482.346 309.716C483.392 307.996 484.583 306.526 486.569 305.484L487.471 303.359C486.759 303.4 486.682 302.904 487.242 302.26C487.744 301.684 489.69 301.199 490.241 300.718C490.28 300.684 490.226 300.646 490.13 300.596Z" fill="#7F664A"/>
<path fillRule="evenodd" clipRule="evenodd" d="M493.807 298.249C493.811 298.244 493.803 298.237 493.815 298.229C493.867 298.198 493.961 298.207 493.999 298.258C494.014 298.279 494.022 298.305 494.029 298.329C494.031 298.338 494.03 298.346 494.029 298.355C494.029 298.356 494.027 298.368 494.027 298.368C494.019 298.361 494.009 298.332 494.002 298.321C493.994 298.31 493.978 298.307 493.967 298.3C493.894 298.261 493.869 298.301 493.809 298.327L493.807 298.249Z" fill="#7F664A"/>
<path fillRule="evenodd" clipRule="evenodd" d="M486.394 302.434C486.433 302.42 486.194 302.436 486.089 302.499C485.884 302.624 485.432 302.942 485.484 303.229C485.506 303.349 485.801 303.221 485.841 303.208C486.354 303.039 486.231 302.719 486.472 302.373L486.394 302.434Z" fill="#5C4A36"/>
<path fillRule="evenodd" clipRule="evenodd" d="M484.804 304.449C484.696 304.312 484.528 304.486 484.396 304.573C484.081 304.78 483.571 305.215 483.456 305.608C483.348 305.973 484.007 305.639 484.075 305.598C484.216 305.512 484.336 305.42 484.454 305.299C484.622 305.126 484.6 304.808 484.701 304.663L484.804 304.449Z" fill="#5C4A36"/>
<path fillRule="evenodd" clipRule="evenodd" d="M482.437 306.73C482.437 306.49 482.274 306.666 482.173 306.763C482.085 306.847 481.325 307.648 481.781 307.714C481.865 307.726 481.996 307.581 482.052 307.536C482.305 307.329 482.503 306.92 482.444 306.584L482.437 306.73Z" fill="#5C4A36"/>
<path fillRule="evenodd" clipRule="evenodd" d="M482.431 304.612C482.431 304.612 482.242 304.498 482.067 304.677C481.822 304.927 481.544 305.237 481.402 305.562C481.352 305.677 481.349 305.917 481.528 305.944C481.92 306 482.387 305.403 482.438 305.059C482.452 304.959 482.533 304.684 482.431 304.612Z" fill="#5C4A36"/>
<path fillRule="evenodd" clipRule="evenodd" d="M481.42 309.611C481.572 309.407 481.109 309.842 481.074 309.881C480.829 310.137 480.572 310.477 480.457 310.82C480.415 310.943 480.352 311.36 480.53 311.443C480.624 311.487 480.907 311.251 480.964 311.191C481.243 310.897 481.292 310.651 481.395 310.27C481.425 310.161 481.526 309.895 481.427 309.8L481.42 309.611Z" fill="#5C4A36"/>
<path fillRule="evenodd" clipRule="evenodd" d="M479.824 307.802C479.824 307.802 479.44 308.019 479.339 308.089C479.067 308.278 478.827 308.54 478.684 308.837C478.634 308.941 478.498 309.227 478.703 309.288C478.856 309.334 478.974 309.223 479.09 309.142C479.398 308.929 480.087 308.182 479.824 307.802Z" fill="#5C4A36"/>
<path fillRule="evenodd" clipRule="evenodd" d="M478.654 311.41C478.654 311.41 478.398 311.452 478.196 311.603C477.972 311.771 477.12 312.585 477.603 312.853C478.054 313.105 478.498 312.094 478.594 311.832C478.643 311.699 478.767 311.324 478.654 311.41Z" fill="#5C4A36"/>
<path fillRule="evenodd" clipRule="evenodd" d="M477.278 315.227C477.278 315.227 476.837 315.387 476.781 315.455C476.674 315.58 476.151 316.407 476.594 316.483C476.934 316.54 477.149 315.795 477.229 315.594C477.235 315.577 477.355 315.158 477.278 315.227Z" fill="#5C4A36"/>
<path fillRule="evenodd" clipRule="evenodd" d="M475.874 317.106C475.874 317.106 475.612 317.092 475.561 317.161C475.412 317.37 474.869 318.269 475.243 318.459C475.345 318.51 475.53 318.338 475.585 318.27C475.802 318.006 475.859 317.657 475.93 317.334C475.952 317.234 476.031 316.95 475.874 317.106Z" fill="#5C4A36"/>
<path fillRule="evenodd" clipRule="evenodd" d="M477.12 319.006C477.12 319.006 476.538 319.901 476.562 320.084C476.566 320.112 476.617 320.298 476.663 320.306C476.772 320.328 476.912 320.129 476.957 320.06C477.101 319.843 477.284 319.249 477.12 319.006Z" fill="#5C4A36"/>
</g>
<defs>
<clipPath id="clip0_1_2">
<rect width="536" height="536" fill="white"/>
</clipPath>
</defs>
</svg>
