<?xml version="1.0" encoding="UTF-8"?>
<svg clipRule="evenodd" fillRule="evenodd" strokeLinejoin="round" strokeMiterlimit="2" version="1.1" viewBox="0 0 104 124" xmlSpace="preserve" xmlns="http://www.w3.org/2000/svg" xmlnsSerif="http://www.serif.com/">
    <g transform="translate(-4006.6 -2061.3)">
        <g serifId="rocking chair">
            <path d="m4010.3 2108.7c-0.43 0.42 2.21-0.28 3.18-0.27 2.07 0.02 5.36-0.53 7.35-0.23 2.84 0.42 5.02 0.17 7.16 0.18 3.19 0.01 7.37 1.46 10.34 0.75 1.1-0.26 4.6 0.32 5.05-0.73 3.66-8.45 6.02-18.75 8.75-28.1 1.67-5.72 2.41-12.41 5.3-17.13 0.49-0.78 1.32-2.17 2.8-1.81 0.93 0.23 0.48 2.83 0.48 2.83s1.97 0.07 2.94-0.04c2.06-0.22 4.14 0.18 6.16-0.04 5.41-0.61 12.61-0.37 18.45 0.14 4.92 0.43 13.67 2.85 13.67 2.85s0.72-1.84 1.26-2.72c1.37-2.23 5.15-1.89 6.11 0.53 2.2 5.54-1.62 14.03-2.73 19.54-3.8 19.03-11.54 38.27-13.08 56.01-0.37 4.27 1.05 11.49 0.66 15.89-0.07 0.87 0.07 1.87 0.23 2.51 0.09 0.41-0.24 1.88-0.02 1.9 0.55 0.05 2-1.56 2.32-1.83 1.17-0.98 3.25-2.76 4.05-4.06 0.28-0.45 1.17-2.09 1.66-2.2 1.97-0.47 4.82 1.18 3.79 3.55-1.51 3.49-4.67 5.43-7.77 8.41-3.35 3.24-7.89 6.81-11.53 9.6-3.31 2.54-6.76 4.61-10.37 6.37-5.98 2.91-12.56 4.18-18.2 3.69-1.64-0.14-3.29-1.93-2.45-3.88 0.81-1.85 3.23-0.94 3.88-2.44 0.72-1.67 0.34-4.31 0.24-6.14-0.2-3.68 0.54-7.93 0.86-11.5 0.15-1.81 1.68-8.22 0.46-8.75-1.47-0.64-5.18-1.18-6.18-1.27-0.77-0.07-2.74 3.06-2.95 3.55-1.58 3.65-7.6 8.34-11.41 9.85-8.13 3.22-16.44 5.36-24.37 7.26-2.42 0.57-5.37-0.91-7.38-1.09-1.39-0.12-2.72-2.55-2.34-3.43 0.47-1.07 3.22 0 3.32-1.17 0.84-9.56 2.01-19.69 2.86-29.35 0.43-4.99 2.17-17.8 1.98-19.85-0.07-0.79 0.04-3.42 0.04-3.42s-1.26-0.41-1.82-0.46c-0.89-0.07-1.8-0.44-2.78-0.53-1.25-0.11-0.91-2.2-0.35-2.67l0.38-0.3c0.02-0.02 0.06-0.05 0.1-0.08l-0.1 0.08zm58.42 43.76s-1.03 6.14-1.23 7.32c-0.21 1.31-0.34 2.59-0.42 3.91-0.05 0.96-0.04 1.95-0.13 2.9-0.32 3.13-1.89 6.82-1.42 9.83 0.06 0.4-0.57 2.36-0.06 2.45 1.43 0.24 5.34-1.58 6.7-2.19 4.33-1.94 8-4.67 11.89-7.45 0.76-0.54 3.25-1.89 3.4-2.82 0.2-1.19-0.03-3.2-0.15-4.71-0.24-3.1 0.72-6.46 0.79-9.58 0.01-0.42 0.63-2.94-0.18-3.07-2.06-0.35-5.3 1.53-7.37 2.04-1.65 0.4-3.42 0.89-5.09 1.02-2.56 0.19-5.17-0.54-6.73 0.35zm-50.4-10.6c-0.18-0.6-0.93 5.41-1.18 6.9-0.9 5.41-1.42 11.25-2.22 16.01-0.12 0.7 1.35-0.02 1.54-0.09 2.09-0.82 4.67-1.2 6.78-2.03 4.28-1.68 9.01-2.32 13.23-4.21 0.66-0.3 4.03-0.99 4.2-1.99 0.46-2.76 0.89-6.73 1.26-8.92 0.1-0.61-4.86-1.28-5.39-1.37-4.89-0.82-9.46-1.63-13.85-3.96-0.66-0.36-2.97-0.52-3.34-1.03l-1.03 0.69zm28.67 7.24c-0.78-1.04-0.45 2.26-0.28 2.72 0.1 0.27 3.95-1.72 4.14-2.11 0.16-0.36-3.68-0.42-3.71-0.5l-0.15-0.11zm36.72-13.66c0.1-1.56 0.49-4.53 0.54-5.25 0.28-4.07 1.12-8.44 1.48-12.51 1.02-11.72 4.69-23.35 6.74-34.92 0.19-1.05 0.61-2.06 0.84-3.1 0.66-2.94-0.29-7.61 4.01-7.01 1.62 0.23 1.44 2.2 1.46 3.39 0.07 3.8-1.47 8.06-2.42 11.79-3.25 12.79-6.78 26.2-8.03 39.4-0.26 2.75-0.17 6.69-1.24 9.21-0.78 1.8-2.45 0.81-3.16-0.48l-0.22-0.52zm-10.66-0.53s0.13-6.07 0.28-6.78c0.83-3.98 1.74-8.04 2.12-12.09 0.4-4.21 1.72-8.12 2.45-12.26 1.37-7.73 3.3-15.46 5.03-23.14 0.6-2.65 0.89-5.59 1.93-8.03 0.43-1 0.98-2.13 2.24-1.95 0.92 0.12 1.41 1.65 1.4 2.45-0.04 2.65-1.16 5.38-1.59 7.97-1.85 11.09-5.27 21.79-7.74 32.74-1.32 5.89-1.1 12.28-2.7 17.86-0.14 0.47-0.67 2.53-1.33 3.47-0.63 0.89-1.03-0.1-2.09-0.24zm-52.14-21.92c-0.47 1.32-0.3 3.48-0.49 4.74-0.16 1.1-0.36 2.26-0.46 3.36-0.07 0.78 0.03 1.6-0.04 2.38-0.16 1.91-2.22 8.67 0.46 8.37 4.71-0.52 10.34 1.41 14.74-0.33 0.56-0.22 3.93-0.31 4.03-1.35 0.32-3.77 2.29-8.79 3.38-12.54 0.51-1.75 1.56-3.22 1.69-4.7 0.16-1.84-5.07-0.7-5.89-0.68-4.18 0.1-8.75-0.14-12.84-0.02-1.73 0.06-3.06-0.21-4.58 0.77zm35.06 17.14c-0.08 0.05 0.27-1.31 0.32-1.55 0.29-1.59 0.63-3.17 0.88-4.77 0.73-4.71 1.94-9.41 2.82-14.11 1.91-10.29 3.06-20.85 5.34-30.99 0.5-2.22 1.5-4.68 1.8-6.83 0.11-0.77 1.36-2.09 2.26-1.83 1.04 0.3 1.3 2.93 1.2 3.91-0.42 3.88-0.71 7.68-1.53 11.5-2.07 9.68-3.54 19.65-6.27 29.16-0.79 2.72-0.42 5.77-1.17 8.36-0.34 1.21-0.94 5.88-2.22 7.6-0.63 0.86-3.43-0.45-3.43-0.45zm-8.31-1c-0.21 0.02 0.23-3.1 0.29-3.49 0.46-3.32 1.4-6.51 1.95-9.81 1.78-10.64 4.62-21.17 6.5-31.8 0.5-2.85 0.96-5.74 1.6-8.56 0.3-1.33-0.01-2.75 0.8-3.93 0.72-1.04 0.96-1.83 2.33-2.08 0.06-0.02 0.71-0.36 0.78-0.27 0.38 0.51 0.02 1.9-0.01 2.49-0.15 2.35-0.83 4.6-1.08 6.93-1.14 10.53-4.66 20.66-6.51 31.08-0.89 5.03-2.07 10.14-2.75 15.04-0.16 1.11-1.05 3.5-1.65 4.38-0.3 0.44-2.25 0.02-2.25 0.02zm21.28-11.88c-0.57 0.42 0.65-3.78 0.91-4.73 0.75-2.78 1.36-6.6 1.83-9.45 0.65-3.84 1.52-7.42 2.13-10.51 1.02-5.22 1.56-10.73 2.83-15.87 0.43-1.76 1.33-7.37 3.87-7.07 0.91 0.11 0.6 1.7 0.65 2.22 0.29 2.79-0.73 6.28-1.32 9.05-2.04 9.49-4.15 19.25-6.47 28.67-0.4 1.65-0.72 6.14-2.3 7.47-0.48 0.4-2.13 0.22-2.13 0.22z" fill="#46391a"/>
        </g>
    </g>
</svg>