<svg width="163" height="21" viewBox="0 0 163 21" fill="none" xmlns="http://www.w3.org/2000/svg">
<g filter="url(#filter0_f_12_3)">
<path d="M135.619 3.23967C136.162 3.23967 136.162 7.9984 136.162 10.3778C136.162 14.6606 135.301 17.9917 134.215 17.9917C126.069 17.5159 41.8988 18.4676 31.0381 17.9917C29.952 17.9917 29.409 13.7089 29.409 10.8536C29.409 6.0949 31.0381 2.76379 32.6672 2.76379C33.586 2.76379 130.186 3.23967 135.616 3.23967H135.619Z" fill="#E3CD9D"/>
<path d="M135.619 3.23967C136.162 3.23967 136.162 7.9984 136.162 10.3778C136.162 14.6606 135.301 17.9917 134.215 17.9917C126.069 17.5159 41.8988 18.4676 31.0381 17.9917C29.952 17.9917 29.409 13.7089 29.409 10.8536C29.409 6.0949 31.0381 2.76379 32.6672 2.76379C33.586 2.76379 130.186 3.23967 135.616 3.23967H135.619Z" stroke="#583C1F" stroke-width="0.243473" stroke-linecap="round" stroke-linejoin="round"/>
</g>
<path d="M18.1729 12.7183C15.3174 14.622 15.7933 12.2424 5.83731 12.3665C5.36043 13.0886 4.5583 13.5629 3.6497 13.5629C2.18826 13.5629 1.00214 12.3359 1.00214 10.824C1.00214 9.3122 2.18826 8.08521 3.6497 8.08521C4.56667 8.08521 5.37523 8.56822 5.85045 9.30158C15.7931 9.38677 15.3172 7.00713 18.1727 8.91085C18.6487 9.38678 20.0765 9.38677 21.1842 9.28151C21.1843 9.70946 21.1844 11.9027 21.1845 12.3307C20.0765 12.2424 18.6489 12.2424 18.1729 12.7183Z" fill="#B06D46"/>
<path d="M24.9692 10.8289C24.9692 13.4796 24.7686 16.0217 24.4116 17.8961C24.0546 19.7704 23.5704 20.8234 23.0655 20.8234C22.5606 20.8234 22.0764 19.7704 21.7194 17.8961C21.3623 16.0217 21.1618 13.4796 21.1618 10.8289C21.1618 8.17817 21.3623 5.63602 21.7194 3.76168C22.0764 1.88734 22.5606 0.834351 23.0655 0.834351C23.5704 0.834351 24.0546 1.88734 24.4116 3.76168C24.7686 5.63602 24.9692 8.17817 24.9692 10.8289Z" fill="#B06D46"/>
<g filter="url(#filter1_f_12_3)">
<path d="M24.9202 10.8274C24.9202 13.2748 24.7816 15.6219 24.5348 17.3525C24.288 19.083 23.9533 20.0552 23.6043 20.0552C23.2553 20.0552 22.9206 19.083 22.6738 17.3525C22.427 15.6219 22.2884 13.2748 22.2884 10.8274C22.2884 8.38002 22.427 6.03288 22.6738 4.30232C22.9206 2.57177 23.2553 1.59955 23.6043 1.59955C23.9533 1.59955 24.288 2.57177 24.5348 4.30232C24.7816 6.03288 24.9202 8.38002 24.9202 10.8274Z" fill="url(#paint0_radial_12_3)"/>
</g>
<g filter="url(#filter2_f_12_3)">
<path d="M18.1729 12.7183C15.3174 14.622 15.7933 12.2424 5.83731 12.3666C10.0973 10.474 20.3817 15.5439 18.1729 8.91089C18.6489 9.38682 20.0767 9.38681 21.1844 9.28155C21.1845 9.7095 21.1846 11.9028 21.1847 12.3307C20.0767 12.2424 18.6489 12.2424 18.1729 12.7183Z" fill="url(#paint1_radial_12_3)"/>
</g>
<path d="M21.1808 9.28687H20.6976V12.3237H21.1808C21.1228 11.3299 21.1035 10.3115 21.1808 9.28687Z" fill="url(#paint2_linear_12_3)"/>
<g filter="url(#filter3_f_12_3)">
<path d="M3.64756 13.5654C2.18612 13.5654 1 12.3384 1 10.8266C1.83126 12.9367 5.95015 12.7815 5.8483 9.3042C5.93939 11.3903 6.70065 12.7838 3.64756 13.5654Z" fill="url(#paint3_radial_12_3)"/>
</g>
<path opacity="0.23221" d="M17.9865 10.4216C17.9865 10.8291 17.8246 11.2199 17.5365 11.508C17.2484 11.7961 16.8576 11.958 16.4501 11.958C16.0427 11.958 15.6519 11.7961 15.3638 11.508C15.0756 11.2199 14.9138 10.8291 14.9138 10.4216C14.9138 10.0141 15.0756 9.62337 15.3638 9.33524C15.6519 9.04712 16.0427 8.88525 16.4501 8.88525C16.8576 8.88525 17.2484 9.04712 17.5365 9.33524C17.8246 9.62337 17.9865 10.0141 17.9865 10.4216Z" fill="url(#paint4_radial_12_3)"/>
<path opacity="0.71161" d="M5.32577 10.1958C5.32577 10.6774 5.13448 11.1392 4.79397 11.4797C4.45346 11.8202 3.99164 12.0115 3.51009 12.0115C3.02854 12.0115 2.56671 11.8202 2.22621 11.4797C1.8857 11.1392 1.6944 10.6774 1.6944 10.1958C1.6944 9.71426 1.8857 9.25243 2.22621 8.91193C2.56671 8.57142 3.02854 8.38013 3.51009 8.38013C3.99164 8.38013 4.45346 8.57142 4.79397 8.91193C5.13448 9.25243 5.32577 9.71426 5.32577 10.1958Z" fill="url(#paint5_radial_12_3)"/>
<path d="M29.3191 12.4613V9.18994H23.8537C23.4003 10.3497 23.4003 11.3016 23.8537 12.4613H29.3191Z" fill="#B06D46"/>
<g filter="url(#filter4_f_12_3)">
<path d="M23.2969 12.4709C28.1115 11.8353 28.4754 10.8995 28.3793 9.36437C28.96 9.8403 27.8902 9.45621 29.242 9.35095C29.2421 9.77891 29.2422 11.9722 29.2424 12.4001C25.1703 12.3433 27.9207 12.3625 23.2969 12.4709Z" fill="url(#paint6_radial_12_3)"/>
</g>
<path d="M29.3906 9.18213H28.5741V12.4285H29.3906C29.2926 11.3661 29.26 10.2774 29.3906 9.18213Z" fill="url(#paint7_linear_12_3)"/>
<path d="M145.299 12.7183C148.154 14.622 147.678 12.2424 157.634 12.3665C158.111 13.0886 158.913 13.5629 159.822 13.5629C161.283 13.5629 162.469 12.3359 162.469 10.824C162.469 9.3122 161.283 8.08521 159.822 8.08521C158.905 8.08521 158.096 8.56822 157.621 9.30158C147.678 9.38677 148.154 7.00713 145.299 8.91085C144.823 9.38678 143.395 9.38677 142.287 9.28151C142.287 9.70946 142.287 11.9027 142.287 12.3307C143.395 12.2424 144.823 12.2424 145.299 12.7183Z" fill="#B06D46"/>
<path d="M138.502 10.8289C138.502 13.4796 138.703 16.0217 139.06 17.8961C139.417 19.7704 139.901 20.8234 140.406 20.8234C140.911 20.8234 141.395 19.7704 141.752 17.8961C142.109 16.0217 142.31 13.4796 142.31 10.8289C142.31 8.17817 142.109 5.63602 141.752 3.76168C141.395 1.88734 140.911 0.834351 140.406 0.834351C139.901 0.834351 139.417 1.88734 139.06 3.76168C138.703 5.63602 138.502 8.17817 138.502 10.8289Z" fill="#B06D46"/>
<g filter="url(#filter5_f_12_3)">
<path d="M138.6 10.801C138.6 15.8948 139.288 20.0535 140.015 20.0535C140.741 20.0535 141.331 15.9194 141.331 10.8256C141.331 5.73185 140.741 1.59778 140.015 1.59778C139.288 1.59778 138.6 5.70716 138.6 10.801Z" fill="#4A2D07"/>
</g>
<g opacity="0.75" filter="url(#filter6_f_12_3)">
<path d="M145.151 12.7191C147.82 14.4988 147.375 12.2742 156.683 12.3902C152.7 10.6209 143.086 15.3606 145.151 9.15967C144.706 9.6046 143.371 9.60459 142.335 9.50619C142.335 9.90627 142.335 11.9567 142.335 12.3568C143.371 12.2742 144.706 12.2742 145.151 12.7191Z" fill="#4A2D07"/>
</g>
<path d="M142.291 9.28687H142.774V12.3237H142.291C142.349 11.3299 142.368 10.3115 142.291 9.28687Z" fill="url(#paint8_linear_12_3)"/>
<g filter="url(#filter7_f_12_3)">
<path d="M159.819 13.5607C161.281 13.5607 162.467 12.3337 162.467 10.8218C161.636 12.9319 157.517 12.7768 157.618 9.29944C157.527 11.3855 156.766 12.7791 159.819 13.5607Z" fill="url(#paint9_radial_12_3)"/>
</g>
<path opacity="0.23221" d="M145.485 10.4216C145.485 10.8291 145.647 11.2199 145.935 11.508C146.223 11.7961 146.614 11.958 147.021 11.958C147.429 11.958 147.82 11.7961 148.108 11.508C148.396 11.2199 148.558 10.8291 148.558 10.4216C148.558 10.0141 148.396 9.62337 148.108 9.33524C147.82 9.04712 147.429 8.88525 147.021 8.88525C146.614 8.88525 146.223 9.04712 145.935 9.33524C145.647 9.62337 145.485 10.0141 145.485 10.4216Z" fill="url(#paint10_radial_12_3)"/>
<path opacity="0.71161" d="M158.141 10.1958C158.141 10.6774 158.332 11.1392 158.673 11.4797C159.013 11.8202 159.475 12.0115 159.957 12.0115C160.438 12.0115 160.9 11.8202 161.241 11.4797C161.581 11.1392 161.772 10.6774 161.772 10.1958C161.772 9.71426 161.581 9.25243 161.241 8.91193C160.9 8.57142 160.438 8.38013 159.957 8.38013C159.475 8.38013 159.013 8.57142 158.673 8.91193C158.332 9.25243 158.141 9.71426 158.141 10.1958Z" fill="url(#paint11_radial_12_3)"/>
<defs>
<filter id="filter0_f_12_3" x="28.0776" y="1.43241" width="109.415" height="18.0281" filterUnits="userSpaceOnUse" color-interpolation-filters="sRGB">
<feFlood flood-opacity="0" result="BackgroundImageFix"/>
<feBlend mode="normal" in="SourceGraphic" in2="BackgroundImageFix" result="shape"/>
<feGaussianBlur stdDeviation="0.60481" result="effect1_foregroundBlur_12_3"/>
</filter>
<filter id="filter1_f_12_3" x="21.972" y="1.28323" width="3.26448" height="19.0884" filterUnits="userSpaceOnUse" color-interpolation-filters="sRGB">
<feFlood flood-opacity="0" result="BackgroundImageFix"/>
<feBlend mode="normal" in="SourceGraphic" in2="BackgroundImageFix" result="shape"/>
<feGaussianBlur stdDeviation="0.158157" result="effect1_foregroundBlur_12_3"/>
</filter>
<filter id="filter2_f_12_3" x="5.4394" y="8.51297" width="16.1432" height="5.34442" filterUnits="userSpaceOnUse" color-interpolation-filters="sRGB">
<feFlood flood-opacity="0" result="BackgroundImageFix"/>
<feBlend mode="normal" in="SourceGraphic" in2="BackgroundImageFix" result="shape"/>
<feGaussianBlur stdDeviation="0.198958" result="effect1_foregroundBlur_12_3"/>
</filter>
<filter id="filter3_f_12_3" x="0.490736" y="8.79494" width="6.01659" height="5.27976" filterUnits="userSpaceOnUse" color-interpolation-filters="sRGB">
<feFlood flood-opacity="0" result="BackgroundImageFix"/>
<feBlend mode="normal" in="SourceGraphic" in2="BackgroundImageFix" result="shape"/>
<feGaussianBlur stdDeviation="0.254632" result="effect1_foregroundBlur_12_3"/>
</filter>
<filter id="filter4_f_12_3" x="22.8573" y="8.9114" width="6.82456" height="3.99897" filterUnits="userSpaceOnUse" color-interpolation-filters="sRGB">
<feFlood flood-opacity="0" result="BackgroundImageFix"/>
<feBlend mode="normal" in="SourceGraphic" in2="BackgroundImageFix" result="shape"/>
<feGaussianBlur stdDeviation="0.219774" result="effect1_foregroundBlur_12_3"/>
</filter>
<filter id="filter5_f_12_3" x="138.176" y="1.17405" width="3.57806" height="19.3031" filterUnits="userSpaceOnUse" color-interpolation-filters="sRGB">
<feFlood flood-opacity="0" result="BackgroundImageFix"/>
<feBlend mode="normal" in="SourceGraphic" in2="BackgroundImageFix" result="shape"/>
<feGaussianBlur stdDeviation="0.211862" result="effect1_foregroundBlur_12_3"/>
</filter>
<filter id="filter6_f_12_3" x="141.87" y="8.69467" width="15.2777" height="5.18231" filterUnits="userSpaceOnUse" color-interpolation-filters="sRGB">
<feFlood flood-opacity="0" result="BackgroundImageFix"/>
<feBlend mode="normal" in="SourceGraphic" in2="BackgroundImageFix" result="shape"/>
<feGaussianBlur stdDeviation="0.232497" result="effect1_foregroundBlur_12_3"/>
</filter>
<filter id="filter7_f_12_3" x="156.959" y="8.79017" width="6.01658" height="5.27976" filterUnits="userSpaceOnUse" color-interpolation-filters="sRGB">
<feFlood flood-opacity="0" result="BackgroundImageFix"/>
<feBlend mode="normal" in="SourceGraphic" in2="BackgroundImageFix" result="shape"/>
<feGaussianBlur stdDeviation="0.254632" result="effect1_foregroundBlur_12_3"/>
</filter>
<radialGradient id="paint0_radial_12_3" cx="0" cy="0" r="1" gradientUnits="userSpaceOnUse" gradientTransform="translate(23.6046 10.8347) scale(3.13322 11.3228)">
<stop stop-color="#3B280F"/>
<stop offset="1" stop-color="#7A532B" stop-opacity="0"/>
</radialGradient>
<radialGradient id="paint1_radial_12_3" cx="0" cy="0" r="1" gradientUnits="userSpaceOnUse" gradientTransform="translate(13.5047 11.1888) rotate(-2.42227) scale(9.63628 5.874)">
<stop stop-color="#3E1F0A"/>
<stop offset="1" stop-color="#B06D46" stop-opacity="0"/>
</radialGradient>
<linearGradient id="paint2_linear_12_3" x1="21.1808" y1="-201.298" x2="20.6954" y2="-201.298" gradientUnits="userSpaceOnUse">
<stop stop-color="#7A532B"/>
<stop offset="1" stop-color="#7A532B" stop-opacity="0"/>
</linearGradient>
<radialGradient id="paint3_radial_12_3" cx="0" cy="0" r="1" gradientUnits="userSpaceOnUse" gradientTransform="translate(3.41687 10.8265) scale(5.09654 3.32811)">
<stop stop-color="#402110"/>
<stop offset="1" stop-color="#B06D46" stop-opacity="0"/>
</radialGradient>
<radialGradient id="paint4_radial_12_3" cx="0" cy="0" r="1" gradientUnits="userSpaceOnUse" gradientTransform="translate(16.4498 10.4216) scale(1.53633 1.53633)">
<stop stop-color="white"/>
<stop offset="1" stop-color="white" stop-opacity="0"/>
</radialGradient>
<radialGradient id="paint5_radial_12_3" cx="0" cy="0" r="1" gradientUnits="userSpaceOnUse" gradientTransform="translate(3.50974 10.1958) scale(1.81565 1.81565)">
<stop stop-color="#EBEBEB" stop-opacity="0.37255"/>
<stop offset="1" stop-color="white" stop-opacity="0"/>
</radialGradient>
<radialGradient id="paint6_radial_12_3" cx="0" cy="0" r="1" gradientUnits="userSpaceOnUse" gradientTransform="translate(23.9374 10.8755) scale(11.3788 4.19065)">
<stop stop-color="#3E1F0A"/>
<stop offset="1" stop-color="#B06D46" stop-opacity="0"/>
</radialGradient>
<linearGradient id="paint7_linear_12_3" x1="29.3906" y1="-201.298" x2="28.5768" y2="-201.298" gradientUnits="userSpaceOnUse">
<stop stop-color="#7A532B"/>
<stop offset="1" stop-color="#7A532B" stop-opacity="0"/>
</linearGradient>
<linearGradient id="paint8_linear_12_3" x1="142.291" y1="-201.298" x2="142.771" y2="-201.298" gradientUnits="userSpaceOnUse">
<stop stop-color="#7A532B"/>
<stop offset="1" stop-color="#7A532B" stop-opacity="0"/>
</linearGradient>
<radialGradient id="paint9_radial_12_3" cx="0" cy="0" r="1" gradientUnits="userSpaceOnUse" gradientTransform="translate(160.05 10.8223) rotate(180) scale(5.09654 3.32811)">
<stop stop-color="#402110"/>
<stop offset="1" stop-color="#B06D46" stop-opacity="0"/>
</radialGradient>
<radialGradient id="paint10_radial_12_3" cx="0" cy="0" r="1" gradientUnits="userSpaceOnUse" gradientTransform="translate(147.022 10.4216) rotate(180) scale(1.53633 1.53633)">
<stop stop-color="white"/>
<stop offset="1" stop-color="white" stop-opacity="0"/>
</radialGradient>
<radialGradient id="paint11_radial_12_3" cx="0" cy="0" r="1" gradientUnits="userSpaceOnUse" gradientTransform="translate(159.957 10.1958) rotate(180) scale(1.81565 1.81565)">
<stop stop-color="#EBEBEB" stop-opacity="0.37255"/>
<stop offset="1" stop-color="white" stop-opacity="0"/>
</radialGradient>
</defs>
</svg>
