<svg width="446" height="70" viewBox="0 0 446 70" fill="none" xmlns="http://www.w3.org/2000/svg">
<g filter="url(#filter0_f_12_3)">
<path d="M396.513 8.42422C398.121 8.42422 398.121 25.0889 398.121 33.4212C398.121 48.4194 395.573 60.0847 392.358 60.0847C368.244 58.4182 119.073 61.7511 86.9222 60.0847C83.707 60.0847 82.0995 45.0865 82.0995 35.0877C82.0995 18.423 86.9222 6.75775 91.7448 6.75775C94.4648 6.75775 380.43 8.42422 396.505 8.42422H396.513Z" fill="#E3CD9D"/>
<path d="M396.513 8.42422C398.121 8.42422 398.121 25.0889 398.121 33.4212C398.121 48.4194 395.573 60.0847 392.358 60.0847C368.244 58.4182 119.073 61.7511 86.9222 60.0847C83.707 60.0847 82.0995 45.0865 82.0995 35.0877C82.0995 18.423 86.9222 6.75775 91.7448 6.75775C94.4648 6.75775 380.43 8.42422 396.505 8.42422H396.513Z" stroke="#583C1F" stroke-width="0.243473" stroke-linecap="round" stroke-linejoin="round"/>
</g>
<path d="M52.6726 41.9163C48.5695 48.8671 49.2533 40.1786 34.9476 40.6319C34.2624 43.2684 33.1098 45 31.8043 45C29.7043 45 28 40.52 28 35C28 29.48 29.7043 25 31.8043 25C33.1219 25 34.2837 26.7636 34.9665 29.4412C49.2531 29.7523 48.5692 21.0637 52.6724 28.0146C53.3562 29.7523 55.4078 29.7523 56.9996 29.3679C56.9997 30.9305 56.9999 38.9385 57 40.5011C55.4078 40.1786 53.3565 40.1786 52.6726 41.9163Z" fill="#B06D46"/>
<path d="M68.9564 35C68.9564 44.2826 68.3626 53.185 67.3057 59.7487C66.2489 66.3125 64.8154 70 63.3208 70C61.8261 70 60.3927 66.3125 59.3358 59.7487C58.2789 53.185 57.6852 44.2826 57.6852 35C57.6852 25.7174 58.2789 16.815 59.3358 10.2513C60.3927 3.68749 61.8261 0 63.3208 0C64.8154 0 66.2489 3.68749 67.3057 10.2513C68.3626 16.815 68.9564 25.7174 68.9564 35Z" fill="#B06D46"/>
<g filter="url(#filter1_f_12_3)">
<path d="M68.8112 34.9942C68.8112 43.5647 68.4008 51.7842 67.6702 57.8445C66.9397 63.9048 65.9488 67.3094 64.9157 67.3094C63.8825 67.3094 62.8916 63.9048 62.1611 57.8445C61.4305 51.7842 61.0201 43.5647 61.0201 34.9942C61.0201 26.4237 61.4305 18.2042 62.1611 12.144C62.8916 6.0837 63.8825 2.67908 64.9157 2.67908C65.9488 2.67908 66.9397 6.0837 67.6702 12.144C68.4008 18.2042 68.8112 26.4237 68.8112 34.9942Z" fill="url(#paint0_radial_12_3)"/>
</g>
<path opacity="0.23221" d="M48.2853 33.5728C48.2853 34.9997 47.8061 36.3682 46.9532 37.3771C46.1002 38.3861 44.9434 38.953 43.7372 38.953C42.5309 38.953 41.3741 38.3861 40.5212 37.3771C39.6682 36.3682 39.1891 34.9997 39.1891 33.5728C39.1891 32.1458 39.6682 30.7774 40.5212 29.7684C41.3741 28.7594 42.5309 28.1926 43.7372 28.1926C44.9434 28.1926 46.1002 28.7594 46.9532 29.7684C47.8061 30.7774 48.2853 32.1458 48.2853 33.5728Z" fill="url(#paint1_radial_12_3)"/>
<path opacity="0.71161" d="M10.8056 32.7835C10.8056 34.4698 10.2393 36.0871 9.23132 37.2795C8.22331 38.4719 6.85616 39.1418 5.43063 39.1418C4.00509 39.1418 2.63794 38.4719 1.62993 37.2795C0.621925 36.0871 0.0556335 34.4698 0.0556335 32.7835C0.0556335 31.0971 0.621925 29.4799 1.62993 28.2874C2.63794 27.095 4.00509 26.4251 5.43063 26.4251C6.85616 26.4251 8.22331 27.095 9.23132 28.2874C10.2393 29.4799 10.8056 31.0971 10.8056 32.7835Z" fill="url(#paint2_radial_12_3)"/>
<path d="M82 39V29H65.9957C64.6681 32.5451 64.6681 35.4549 65.9957 39H82Z" fill="#B06D46"/>
<g filter="url(#filter2_f_12_3)">
<path d="M64.0057 38.9257C76.7928 37.0529 77.7592 34.2958 77.504 29.7725C79.0463 31.1748 76.2052 30.0431 79.7953 29.733C79.7956 30.9939 79.796 37.4564 79.7963 38.7173C68.9814 38.5498 76.2861 38.6063 64.0057 38.9257Z" fill="url(#paint3_radial_12_3)"/>
</g>
<path d="M82.045 29.2322H79.6279V40.6005H82.045C81.755 36.8804 81.6583 33.0678 82.045 29.2322Z" fill="url(#paint4_linear_12_3)"/>
<path d="M420.581 41.619C424.684 48.2856 424 39.9523 438.306 40.3871C438.991 42.9158 440.144 44.5766 441.45 44.5766C443.55 44.5766 445.254 40.2798 445.254 34.9855C445.254 29.6911 443.55 25.3943 441.45 25.3943C440.132 25.3943 438.97 27.0858 438.287 29.6539C424.001 29.9523 424.685 21.619 420.581 28.2856C419.898 29.9523 417.846 29.9523 416.254 29.5836C416.254 31.0823 416.254 38.763 416.254 40.2616C417.846 39.9523 419.897 39.9523 420.581 41.619Z" fill="#B06D46"/>
<path d="M405.05 35C405.05 44.2826 405.643 53.185 406.7 59.7487C407.757 66.3125 409.19 70 410.685 70C412.18 70 413.613 66.3125 414.67 59.7487C415.727 53.185 416.321 44.2826 416.321 35C416.321 25.7174 415.727 16.815 414.67 10.2513C413.613 3.68749 412.18 0 410.685 0C409.19 0 407.757 3.68749 406.7 10.2513C405.643 16.815 405.05 25.7174 405.05 35Z" fill="#B06D46"/>
<g filter="url(#filter3_f_12_3)">
<path d="M405.339 34.9026C405.339 52.7405 407.377 67.3039 409.527 67.3039C411.678 67.3039 413.423 52.8267 413.423 34.9887C413.423 17.1508 411.678 2.67358 409.527 2.67358C407.377 2.67358 405.339 17.0643 405.339 34.9026Z" fill="#4A2D07"/>
</g>
<path opacity="0.23221" d="M425.721 33.5728C425.721 34.9997 426.2 36.3682 427.053 37.3771C427.906 38.3861 429.063 38.953 430.269 38.953C431.475 38.953 432.632 38.3861 433.485 37.3771C434.338 36.3682 434.817 34.9997 434.817 33.5728C434.817 32.1458 434.338 30.7774 433.485 29.7684C432.632 28.7594 431.475 28.1926 430.269 28.1926C429.063 28.1926 427.906 28.7594 427.053 29.7684C426.2 30.7774 425.721 32.1458 425.721 33.5728Z" fill="url(#paint5_radial_12_3)"/>
<path d="M398.144 40.7148V29.2588H408.893C409.785 33.3201 409.785 36.6535 408.893 40.7148H398.144Z" fill="#B06D46"/>
<g filter="url(#filter4_f_12_3)">
<path d="M409.978 40.748C400.509 38.5221 399.793 35.2453 399.983 29.8693C398.84 31.536 400.944 30.1909 398.286 29.8223C398.285 31.321 398.285 39.0017 398.285 40.5003C406.294 40.3012 400.884 40.3684 409.978 40.748Z" fill="url(#paint6_radial_12_3)"/>
</g>
<path d="M398.089 29.2322H399.248V40.6005H398.089C398.228 36.8804 398.274 33.0678 398.089 29.2322Z" fill="url(#paint7_linear_12_3)"/>
<defs>
<filter id="filter0_f_12_3" x="80.7681" y="5.42637" width="318.684" height="56.4708" filterUnits="userSpaceOnUse" color-interpolation-filters="sRGB">
<feFlood flood-opacity="0" result="BackgroundImageFix"/>
<feBlend mode="normal" in="SourceGraphic" in2="BackgroundImageFix" result="shape"/>
<feGaussianBlur stdDeviation="0.60481" result="effect1_foregroundBlur_12_3"/>
</filter>
<filter id="filter1_f_12_3" x="60.7038" y="2.36276" width="8.42374" height="65.2629" filterUnits="userSpaceOnUse" color-interpolation-filters="sRGB">
<feFlood flood-opacity="0" result="BackgroundImageFix"/>
<feBlend mode="normal" in="SourceGraphic" in2="BackgroundImageFix" result="shape"/>
<feGaussianBlur stdDeviation="0.158157" result="effect1_foregroundBlur_12_3"/>
</filter>
<filter id="filter2_f_12_3" x="63.5662" y="29.2934" width="16.6697" height="10.0718" filterUnits="userSpaceOnUse" color-interpolation-filters="sRGB">
<feFlood flood-opacity="0" result="BackgroundImageFix"/>
<feBlend mode="normal" in="SourceGraphic" in2="BackgroundImageFix" result="shape"/>
<feGaussianBlur stdDeviation="0.219774" result="effect1_foregroundBlur_12_3"/>
</filter>
<filter id="filter3_f_12_3" x="404.916" y="2.24986" width="8.93094" height="65.4778" filterUnits="userSpaceOnUse" color-interpolation-filters="sRGB">
<feFlood flood-opacity="0" result="BackgroundImageFix"/>
<feBlend mode="normal" in="SourceGraphic" in2="BackgroundImageFix" result="shape"/>
<feGaussianBlur stdDeviation="0.211862" result="effect1_foregroundBlur_12_3"/>
</filter>
<filter id="filter4_f_12_3" x="397.927" y="29.4641" width="12.41" height="11.6422" filterUnits="userSpaceOnUse" color-interpolation-filters="sRGB">
<feFlood flood-opacity="0" result="BackgroundImageFix"/>
<feBlend mode="normal" in="SourceGraphic" in2="BackgroundImageFix" result="shape"/>
<feGaussianBlur stdDeviation="0.179137" result="effect1_foregroundBlur_12_3"/>
</filter>
<radialGradient id="paint0_radial_12_3" cx="0" cy="0" r="1" gradientUnits="userSpaceOnUse" gradientTransform="translate(64.9165 35.0197) scale(9.27532 39.6516)">
<stop stop-color="#3B280F"/>
<stop offset="1" stop-color="#7A532B" stop-opacity="0"/>
</radialGradient>
<radialGradient id="paint1_radial_12_3" cx="0" cy="0" r="1" gradientUnits="userSpaceOnUse" gradientTransform="translate(43.7363 33.5728) scale(4.54802 5.38009)">
<stop stop-color="white"/>
<stop offset="1" stop-color="white" stop-opacity="0"/>
</radialGradient>
<radialGradient id="paint2_radial_12_3" cx="0" cy="0" r="1" gradientUnits="userSpaceOnUse" gradientTransform="translate(5.42959 32.7835) scale(5.37489 6.35824)">
<stop stop-color="#EBEBEB" stop-opacity="0.37255"/>
<stop offset="1" stop-color="white" stop-opacity="0"/>
</radialGradient>
<radialGradient id="paint3_radial_12_3" cx="0" cy="0" r="1" gradientUnits="userSpaceOnUse" gradientTransform="translate(65.7069 34.2249) scale(30.2209 12.3477)">
<stop stop-color="#3E1F0A"/>
<stop offset="1" stop-color="#B06D46" stop-opacity="0"/>
</radialGradient>
<linearGradient id="paint4_linear_12_3" x1="82.045" y1="-707.853" x2="79.6358" y2="-707.853" gradientUnits="userSpaceOnUse">
<stop stop-color="#7A532B"/>
<stop offset="1" stop-color="#7A532B" stop-opacity="0"/>
</linearGradient>
<radialGradient id="paint5_radial_12_3" cx="0" cy="0" r="1" gradientUnits="userSpaceOnUse" gradientTransform="translate(430.27 33.5728) rotate(180) scale(4.54802 5.38009)">
<stop stop-color="white"/>
<stop offset="1" stop-color="white" stop-opacity="0"/>
</radialGradient>
<radialGradient id="paint6_radial_12_3" cx="0" cy="0" r="1" gradientUnits="userSpaceOnUse" gradientTransform="translate(408.719 35.156) rotate(180) scale(22.3795 14.6753)">
<stop stop-color="#3E1F0A"/>
<stop offset="1" stop-color="#B06D46" stop-opacity="0"/>
</radialGradient>
<linearGradient id="paint7_linear_12_3" x1="398.089" y1="-707.853" x2="399.254" y2="-707.853" gradientUnits="userSpaceOnUse">
<stop stop-color="#7A532B"/>
<stop offset="1" stop-color="#7A532B" stop-opacity="0"/>
</linearGradient>
</defs>
</svg>
